<?xml version="1.0" encoding="UTF-8" standalone="no"?>
<!-- Created with Inkscape (http://www.inkscape.org/) -->

<svg
   width="100mm"
   height="100mm"
   viewBox="0 0 100 100"
   version="1.1"
   id="svg1"
   xml:space="preserve"
   xmlns="http://www.w3.org/2000/svg"
   xmlns:svg="http://www.w3.org/2000/svg"><defs
     id="defs1" /><g
     id="layer1"
     style="display:inline"><path
       style="fill:none;fill-opacity:1;fill-rule:evenodd;stroke:#000000;stroke-width:2.02313;stroke-dasharray:none;stroke-opacity:1"
       d="m 16.385483,12.179383 c 0.04078,-0.177358 0.285461,-0.487731 0.122343,-0.532071 -0.163122,-0.04434 -0.253639,0.646274 -0.122343,0.532071 0.31844,-0.276985 0.483678,-0.71415 0.734045,-1.064143 0.03541,-0.04949 0.08157,-0.08868 0.122342,-0.133019 0,-0.08868 -0.04524,-0.19225 0,-0.266036 0.07912,-0.129043 0.381499,-0.207396 0.489363,-0.266035 1.153965,-0.6273365 -0.02679,-0.02492 0.489364,-0.399054 0.410042,-0.2972167 0.934736,-0.3969592 1.345751,-0.6650885 0.0989,-0.064529 0.145774,-0.2015131 0.244679,-0.266036 0.41122,-0.2682638 0.281601,0.0031 0.611705,-0.266036 0.09228,-0.075247 0.141516,-0.2099499 0.244684,-0.266036 0.534846,-0.290761 1.253117,-0.4119746 1.835111,-0.6650886 0.758136,-0.3297192 1.526308,-0.8471854 2.324479,-1.0641425 0.118684,-0.032257 0.244679,0 0.367021,0 0.163122,-0.044335 0.329853,-0.075202 0.489363,-0.1330195 0.30252,-0.1096472 0.528875,-0.3397038 0.856388,-0.399054 0.683618,-0.1238835 1.396174,-0.1421556 2.079795,-0.2660346 0.408439,-0.07402 0.814227,-0.2024799 1.223407,-0.266036 0.838577,-0.130255 1.734585,0.018213 2.569158,-0.1330195 0.127209,-0.023047 0.239819,-0.1099724 0.367025,-0.1330195 0.395175,-0.07161 0.830864,0.085358 1.223407,0 0.24324,-0.052894 0.493395,-0.067604 0.734046,-0.1330194 0.05595,-0.015212 0.06579,-0.1207199 0.122342,-0.1330195 0.669994,-0.1456887 1.515598,0 2.202136,0 0.447662,0 0.783937,-0.073295 1.223407,-0.1330195 0.99871,-0.1357396 2.066564,0.1797552 3.058522,0 0.127209,-0.023047 0.239818,-0.1099724 0.367024,-0.1330195 1.164823,-0.2110794 2.385217,0.1198033 3.547885,-0.1330195 0.632109,-0.1374544 1.438986,0 2.079795,0 1.712773,0 3.425542,0 5.138315,0 0.49921,0 0.859422,0.066924 1.345753,0.1330195 0.512484,0.069659 1.083685,-0.1101942 1.590431,0 0.08941,0.01944 0.155262,0.1135795 0.24468,0.1330195 0.274485,0.059695 0.581903,-0.059695 0.856388,0 0.449766,0.097806 0.893982,0.1841709 1.345748,0.266036 0.241353,0.043744 0.491824,-0.037623 0.734047,0 0.16645,0.025856 0.32291,0.1071636 0.489364,0.1330195 0.479574,0.074493 0.988511,-0.074493 1.46809,0 0.166449,0.025856 0.322056,0.1148213 0.489362,0.1330195 0.512664,0.055747 1.08034,-0.09244 1.590433,0 0.49124,0.089025 0.97897,0.1596736 1.468089,0.266036 0.745026,0.1620079 1.579452,-0.1620094 2.324479,0 0.885263,0.1925042 -0.559133,0.1330195 0.611701,0.1330195 0.38194,0 0.850146,-0.067633 1.223409,0 0.08994,0.016306 0.154738,0.1167135 0.244683,0.1330194 0.357105,0.064706 0.743965,-0.064706 1.10107,0 0.302987,0.054905 0.57011,0.1882231 0.856384,0.2660361 0.30634,0.083274 0.66454,0.076089 0.978727,0.1330194 0.418036,0.075749 0.810625,0.3349377 1.223409,0.3990541 0.161482,0.025087 0.327881,-0.025087 0.489364,0 0.563971,0.087605 1.150022,0.3961018 1.712774,0.5320705 0.385371,0.09312 1.676067,0.3458462 1.835111,0.399054 1.561163,0.5222796 -0.725691,0.058955 0.734046,0.399054 0.661649,0.1541551 1.505744,0.4058765 2.202134,0.5320706 0.201129,0.036441 0.413892,-0.053767 0.611703,0 0.327684,0.089069 0.634787,0.3367264 0.978727,0.399054 0.493332,0.089394 0.991897,0.136597 1.468094,0.2660345 0.263329,0.07158 0.564586,0.3376371 0.734044,0.3990541 0.244959,0.088773 0.672501,0.5973619 0.734046,0.7981069 0.01292,0.04206 -0.02885,0.101664 0,0.133019 0.02885,0.03135 0.0935,-0.03135 0.122342,0 0.02363,0.02571 0.182513,1.332351 0.122343,1.463197 -0.01823,0.03966 -0.10411,-0.03966 -0.122343,0 -0.03648,0.07931 0.03648,0.18672 0,0.266036 -0.01823,0.03966 -0.08586,-0.01982 -0.122342,0 -0.228377,0.12415 -0.399992,0.37861 -0.611705,0.532071 -0.432826,0.313732 -1.572258,0.481145 -2.079795,0.66509 -0.217901,0.07897 -0.480104,0.343832 -0.734046,0.399052 -0.315118,0.06852 -0.661869,0.06412 -0.978727,0.13302 -0.335606,0.07298 -0.654825,0.328619 -0.978727,0.399054 -0.119963,0.02608 -0.247058,-0.02609 -0.367021,0 -0.178836,0.03888 -0.310532,0.227147 -0.489364,0.266036 -0.119963,0.02608 -0.247057,-0.02609 -0.367024,0 -0.287627,0.06255 -0.570882,0.321449 -0.856385,0.399052 -0.314381,0.08546 -0.666243,0.04807 -0.978727,0.13302 -1.591633,0.432635 0.381512,0.12987 -0.856384,0.399052 -0.36512,0.0794 -0.724798,0.197854 -1.10107,0.266037 -0.12067,0.02186 -0.253431,-0.04941 -0.367024,0 -0.107087,0.04658 -0.137589,0.21946 -0.24468,0.266033 -0.113599,0.04941 -0.246346,-0.02186 -0.367021,0 -0.250728,-0.0569 -0.395086,0.226784 -0.611706,0.266038 -0.160902,0.02914 -0.327881,-0.02507 -0.489362,0 -0.404576,0.06284 -0.963906,0.243362 -1.345753,0.399052 -0.885902,0.361206 -1.509594,0.537712 -2.446816,0.66509 -0.456,0.06197 -0.897057,0.338073 -1.345752,0.399053 -0.801902,0.108982 -1.647045,-0.124224 -2.446816,0 -0.127658,0.01982 -0.23936,0.113195 -0.367021,0.133019 -1.099597,0.170795 -2.966733,0 -4.15959,0 -2.242918,0 -4.485834,0 -6.728752,0 -2.650716,0 -5.301434,0 -7.952154,0 -1.060288,0 -2.120575,0 -3.180863,0 -0.337663,0 -0.770748,0.07183 -1.101068,0 -0.08941,-0.01944 -0.154736,-0.116713 -0.244683,-0.133019 -0.674527,-0.122228 -1.405264,0.122227 -2.079795,0 -0.734706,-0.133138 -1.467644,-0.265952 -2.202136,-0.399053 -0.473988,-0.08589 -0.99728,0.102389 -1.46809,0 -0.479766,-0.104325 -0.799567,-0.05621 -1.223406,-0.133019 -0.409378,-0.07418 -0.806094,-0.201215 -1.223411,-0.266035 -0.319719,-0.04966 -0.659012,0.04966 -0.978727,0 -0.576827,-0.08959 -1.144672,-0.16309 -1.712773,-0.266037 -0.241352,-0.04373 -0.492691,0.04374 -0.734046,0 -0.254408,-0.0461 -0.47872,-0.226376 -0.734044,-0.266033 -0.322963,-0.05016 -0.655762,0.05016 -0.978727,0 -0.407413,-0.06329 -0.815995,-0.202755 -1.223408,-0.266038 -0.322965,-0.05016 -0.655764,0.05016 -0.978727,0 -0.450471,-0.06997 -0.912695,-0.304882 -1.345752,-0.399053 -0.384602,-0.08363 -0.844369,-0.02999 -1.223406,-0.133019 -0.05595,-0.01521 -0.06525,-0.124148 -0.122343,-0.133019 -0.242222,-0.03762 -0.491251,0.03301 -0.734046,0 -0.316261,-0.04298 -0.665576,-0.313933 -0.978727,-0.399053 -0.276146,-0.07505 -0.579734,-0.05782 -0.856384,-0.13302 -0.259077,-0.07043 -0.47497,-0.328631 -0.734047,-0.399052 -0.258425,-0.07025 -0.258314,0.118192 -0.489363,-0.13302 -0.06448,-0.0701 -0.04647,-0.211039 -0.122342,-0.266036 -0.112186,-0.08132 -0.473626,-0.09548 -0.611705,-0.133019 -0.652484,-0.177357 0.122342,-0.04434 -0.367022,-0.399054 -0.139902,-0.101413 -0.349462,-0.03161 -0.489364,-0.13302 -0.16888,-0.122419 -0.102355,-0.244303 -0.244681,-0.399054 -0.514069,-0.558931 -0.475249,0.01286 -0.122342,-1.330178 z"
       id="path28" /><path
       style="fill:#000000;fill-opacity:1;fill-rule:evenodd;stroke:#000000;stroke-width:2.02313;stroke-dasharray:none;stroke-opacity:1"
       d="m 16.385483,13.243526 c -0.07542,0.392267 0.06034,0.803536 0,1.19716 -0.015,0.09779 -0.104463,0.168816 -0.122342,0.266036 -0.03999,0.217392 0.06447,0.454769 0,0.665089 -0.01823,0.05949 -0.108352,0.07219 -0.122343,0.133019 -0.05023,0.218471 0.06767,0.577381 0,0.798107 -0.01823,0.05949 -0.104109,0.07353 -0.122342,0.13302 -0.09783,0.319108 -0.05709,4.026023 0,4.522606 0.02086,0.181407 0.0947,0.351745 0.122342,0.532075 0.04059,0.264778 -0.108215,0.695807 0,0.931123 0.05159,0.112175 0.201845,0.149596 0.244682,0.266035 0.09734,0.264578 -0.06416,0.652088 0,0.931126 0.151654,0.659555 0.03205,0.74112 0.122343,1.330177 0.015,0.09779 0.104463,0.168816 0.122342,0.266038 0.06267,0.340689 -0.05255,0.721303 0,1.064141 -0.04249,0.270645 0.201612,0.430954 0.244681,0.66509 0.08627,0.468972 -0.08627,0.994222 0,1.463195 0.144547,0.785807 0.02106,1.49048 0.122342,2.261303 0.01823,0.138814 0.10411,0.260251 0.122343,0.399055 0.06616,0.503526 0,1.086977 0,1.596214 0,1.257885 -0.03381,2.473307 -0.122343,3.724498 -0.07713,1.090226 0.142144,2.243607 0,3.325448 -0.01823,0.1388 -0.101145,0.260746 -0.122342,0.399053 -0.112403,0.733269 0.08487,1.523101 0,2.261303 -0.212655,1.849718 0.06658,3.737979 -0.122342,5.586748 -0.171023,1.673541 -0.122343,3.362641 -0.122343,5.054676 0,1.817912 0,3.635823 0,5.453734 0,1.202798 -0.100628,2.52096 0,3.724497 0.01523,0.182067 0.10377,0.350376 0.122343,0.532072 0.08505,0.832173 -0.08505,1.695168 0,2.527339 0.01857,0.181696 0.09856,0.351096 0.122342,0.532072 0.134171,1.021211 0,2.159079 0,3.192426 0,2.483002 0,4.966002 0,7.448998 0,0.538546 -0.06192,0.804595 -0.122342,1.33018 -0.115232,1.002284 0.131343,2.059742 0,3.059412 -0.01823,0.138799 -0.101146,0.260746 -0.122343,0.399052 -0.05811,0.379113 0,0.811768 0,1.197161 0,0.342728 0.08798,1.080559 0,1.463195 -0.02212,0.09618 -0.104463,0.168815 -0.122342,0.266037 -0.149445,0.812429 0,2.647901 0,3.591484 0,0.337693 -0.01468,1.322192 0,1.330175 0.150389,0.08177 0.331927,0.06883 0.489363,0.13302 0.857937,0.349803 0.146494,0.146147 0.856386,0.532072 0.373983,0.203309 0.827412,0.388553 1.22341,0.53207 0.159513,0.05782 0.345181,0.03895 0.489363,0.13302 0.07819,0.051 0.04078,0.221695 0.122342,0.266034 0.109426,0.05949 0.248336,-0.03227 0.367022,0 0.05595,0.01521 0.08157,0.08868 0.122342,0.13302 0.08157,0.04434 0.155266,0.113579 0.24468,0.133019 0.119963,0.02609 0.253433,-0.04941 0.367025,0 0.107087,0.04658 0.141513,0.209952 0.24468,0.266033 0.185988,0.101103 0.414436,0.06153 0.611705,0.13302 0.122342,0.04434 0.244679,0.08868 0.367022,0.133019 0.04078,0.04434 0.07076,0.104976 0.122342,0.13302 0.454659,0.247168 0.985051,0.282343 1.46809,0.399051 0.325562,0.07866 0.661961,0.341654 0.978727,0.399052 0.160902,0.02914 0.327881,-0.02507 0.489363,0 0.352147,0.0547 0.629959,0.323215 0.978731,0.399057 0.159952,0.03477 0.334611,-0.05609 0.489362,0 0.05471,0.01982 0.06763,0.113196 0.122343,0.13302 0.154751,0.05609 0.334615,-0.05609 0.489363,0 0.251126,0.09102 0.426851,0.332253 0.734047,0.399055 0.863111,0.187685 1.702951,0.4558 2.569158,0.66509 0.238856,0.05771 0.494115,-0.05217 0.734046,0 0.39434,0.08576 0.81322,0.33534 1.223407,0.399053 1.258883,0.195535 2.531439,0.336188 3.792568,0.53207 0.32569,0.05059 0.652485,0.221699 0.978727,0.266035 0.525172,0.07137 1.066521,0.05164 1.59043,0.133019 0.255326,0.03966 0.47964,0.219935 0.734048,0.266038 0.396779,0.07191 0.826627,-0.07191 1.223409,0 0.127196,0.02303 0.239817,0.109972 0.367022,0.133019 0.241352,0.04373 0.494116,-0.05217 0.734043,0 0.08942,0.01944 0.154737,0.116714 0.244684,0.13302 0.397315,0.07199 0.824518,-0.06196 1.22341,0 0.16645,0.02586 0.323507,0.102965 0.489363,0.133019 0.316355,0.05733 0.664512,-0.06833 0.978727,0 0.08942,0.01944 0.155265,0.11358 0.244679,0.13302 0.669286,0.145541 1.512975,0 2.202136,0 1.508872,0 3.017742,0 4.526616,0 2.569158,0 5.138315,0 7.707473,0 1.201168,0 2.350115,-0.04 3.547885,-0.13302 0.244062,-0.01897 0.49667,0.06453 0.734048,0 0.76688,-0.208453 1.557187,-0.387005 2.324474,-0.66509 0.116061,-0.04206 0.247057,0.02609 0.367026,0 0.537352,-0.116846 1.051271,-0.414826 1.59043,-0.53207 1.175582,-0.255638 2.441508,-0.613041 3.547885,-1.064143 0.25118,-0.102418 0.868527,-0.202826 1.101068,-0.266037 0.541102,-0.147079 1.20107,-0.293629 1.712771,-0.532071 0.13515,-0.06298 0.225645,-0.222116 0.367024,-0.266034 0.156845,-0.04873 0.327501,0.02198 0.489363,0 0.560546,-0.07618 1.059651,-0.358942 1.590432,-0.532071 0.39834,-0.12993 0.82353,-0.141815 1.223406,-0.266037 0.458958,-0.14257 0.882682,-0.406199 1.345752,-0.532071 0.07913,-0.02151 0.176818,0.04918 0.244681,0 0.07587,-0.05499 0.03768,-0.229212 0.122342,-0.266034 0.974972,-0.424026 0.05266,0.391304 0.856389,-0.13302 0.0989,-0.06453 0.141512,-0.209953 0.244679,-0.266037 0.150391,-0.08175 0.329853,-0.0752 0.489364,-0.13302 0.33222,-0.120409 0.587666,-0.445961 0.856389,-0.66509 0.330104,-0.269186 0.200485,0.0024 0.611701,-0.266037 0.223912,-0.146073 0.427066,-0.331315 0.611705,-0.532071 0.291191,-0.316605 0.486478,-0.838264 0.734046,-1.197162 0.06921,-0.100334 0.175476,-0.165705 0.24468,-0.266033 0.07738,-0.112175 0.03115,-0.29991 0.122342,-0.399056 0.02885,-0.03137 0.0935,0.03137 0.122342,0 0.244918,-0.266291 -0.200622,-1.526903 -0.244683,-1.862247 -0.04163,-0.31687 0.07316,-0.745966 0,-1.064141 -0.02212,-0.09618 -0.100221,-0.169854 -0.122342,-0.266038 -0.05757,-0.250389 0.05757,-0.547721 0,-0.798109 -0.02212,-0.09618 -0.104463,-0.168811 -0.122343,-0.266033 -0.09262,-0.503523 0,-1.221976 0,-1.729233 0,-1.418859 0,-2.837713 0,-4.256572 0,-2.194289 -0.161446,-4.491026 0.122343,-6.65089 0.09705,-0.738691 -0.09705,-1.522613 0,-2.261303 0.02378,-0.180976 0.09856,-0.351096 0.122342,-0.532072 0.05125,-0.390029 -0.05955,-0.808688 0,-1.19716 0.02118,-0.138312 0.104109,-0.260249 0.122342,-0.399053 0.199377,-1.517445 -0.231647,-3.144453 0,-4.655624 0.192262,-1.254252 0.122343,-2.570366 0.122343,-3.857517 0,-0.370275 -0.05387,-0.845764 0,-1.19716 0.0095,-0.06185 0.108351,-0.07219 0.122342,-0.13302 0.140238,-0.609923 0,-1.727001 0,-2.394321 0,-1.551874 0,-3.103747 0,-4.655624 0,-1.330176 0,-2.660356 0,-3.990536 0,-1.027641 0.06095,-2.062921 -0.122342,-3.059407 -0.09689,-0.526725 0,-1.185189 0,-1.729232 0,-0.739367 -0.04766,-1.397451 -0.122343,-2.128288 -0.04647,-0.454723 0.102152,-1.018911 0,-1.463194 -0.02212,-0.09618 -0.104449,-0.168817 -0.122342,-0.266037 -0.156866,-0.852783 0,-1.918724 0,-2.793376 0,-2.039605 0,-4.079213 0,-6.118819 0,-1.321464 0.113736,-2.707139 -0.122342,-3.990534 -0.155992,-0.84803 0,-2.741786 0,-3.724497 0,-0.482433 -0.122343,-0.749084 -0.122343,-1.197162 0,-0.752916 0.09284,-1.559422 -0.122342,-2.261303 -0.151786,-0.495108 0.03508,-1.082803 -0.122343,-1.596214 -0.213378,-0.696011 0.168267,-1.795534 0,-2.527339 -0.01399,-0.06083 -0.104109,-0.07353 -0.122342,-0.13302 -0.03929,-0.128156 0.09114,-0.699013 0,-0.798107 -0.08157,-0.08868 -0.193099,0.153866 -0.244683,0.266036 -0.07433,0.161633 -0.251425,0.539405 -0.367022,0.665089 -0.06448,0.0701 -0.189969,0.05371 -0.244684,0.13302 -0.07738,0.112175 -0.05081,0.282389 -0.122342,0.399054 -0.218592,0.3565 -0.681301,0.379543 -0.856385,0.665088 -0.04524,0.07378 0.04524,0.192252 0,0.266036 -0.113436,0.184993 -0.567569,0.2633 -0.734047,0.399053 -0.09227,0.07525 -0.141512,0.209951 -0.24468,0.266036 -0.114089,0.06203 -0.566503,0.129412 -0.734047,0.266036 -0.07295,0.05949 -0.04078,0.221697 -0.122343,0.266036 -0.109425,0.05949 -0.253432,-0.04941 -0.367025,0 -0.107087,0.04658 -0.137587,0.219458 -0.24468,0.266034 -0.1136,0.04941 -0.250961,-0.04206 -0.367026,0 -0.674752,0.489099 -0.04864,0.141831 -0.734042,0.266036 -0.625904,0.113417 -1.213449,0.568529 -1.835115,0.665088 -0.522143,0.0811 -0.943447,0.06964 -1.46809,0.13302 -0.312056,-0.02957 -0.561795,0.225997 -0.856385,0.266033 -0.84819,0.115279 -1.721159,0.01775 -2.569157,0.133019 -1.661619,0.225829 -3.354322,0.17322 -5.015979,0.399053 -0.762905,0.103689 -1.561569,-0.10369 -2.324474,0 -0.166846,0.02268 -0.322522,0.110342 -0.489364,0.133019 -0.481837,0.06549 -0.986256,-0.06549 -1.468093,0 -0.166843,0.02269 -0.322248,0.112826 -0.489364,0.13302 -0.721045,0.0871 -1.481098,-0.06533 -2.202136,0 -0.437301,0.03962 -0.901864,0.205707 -1.345749,0.266037 -1.245876,0.169324 -2.54872,-0.03603 -3.792568,0.13302 -0.166841,0.02268 -0.322521,0.110342 -0.489363,0.133019 -0.602293,0.08185 -1.232818,-0.08185 -1.835111,0 -0.127972,0.0174 -0.239363,0.113181 -0.367025,0.13302 -0.322964,0.05016 -0.655763,-0.05016 -0.978727,0 -0.127658,0.01984 -0.239359,0.113195 -0.367021,0.133019 -1.083106,0.168233 -2.87716,0 -4.037248,0 -1.060288,0 -2.120575,0 -3.180863,0 -0.471703,0 -1.00178,0.07242 -1.468094,0 -0.575802,-0.08944 -1.145597,-0.163257 -1.712769,-0.266037 -0.357104,-0.06471 -0.743965,0.06471 -1.101069,0 -0.12721,-0.02303 -0.239359,-0.113181 -0.367021,-0.13302 -0.282593,-0.04389 -0.57481,0.05103 -0.856388,0 -0.371105,-0.06725 -0.729961,-0.198785 -1.10107,-0.266034 -0.423839,-0.0768 -0.74364,-0.02871 -1.223406,-0.13302 -0.313106,-0.06809 -0.662392,0.04914 -0.97873,0 -0.410154,-0.06372 -0.819269,-0.21111 -1.223406,-0.266037 -0.202327,-0.0275 -0.409852,0.03137 -0.611705,0 -0.272668,-0.04235 -0.570838,-0.221684 -0.856385,-0.266035 -0.446197,-0.0693 -0.90163,-0.05254 -1.345751,-0.133019 -0.08994,-0.01631 -0.163123,-0.08868 -0.244681,-0.13302 -0.163121,-0.04434 -0.322913,-0.107163 -0.489363,-0.133019 -1.07227,-0.166551 -2.24469,-0.358186 -3.303205,-0.665088 -0.373813,-0.108391 -0.722778,-0.310918 -1.101068,-0.399056 -0.199376,-0.04645 -0.408816,0.02207 -0.611705,0 -0.682728,-0.07423 -1.297413,-0.388541 -1.957452,-0.53207 -1.719008,-0.373806 0.973011,0.511293 -1.101068,-0.13302 -0.08769,-0.02723 -0.154737,-0.116713 -0.244684,-0.133019 -0.1609,-0.02915 -0.334613,0.05609 -0.489363,0 -0.109425,-0.03966 -0.135259,-0.226377 -0.24468,-0.266036 -0.734047,-0.266035 -0.244684,0.133019 -0.734047,0 C 19.370812,14.021756 18.783126,13.795503 18.220582,13.642594 17.624711,13.480625 16.999149,13.41035 16.38547,13.24354 Z"
       id="path29" /></g></svg>
