<?xml version="1.0" encoding="UTF-8" standalone="no"?>
<!-- Created with Inkscape (http://www.inkscape.org/) -->

<svg
   width="100mm"
   height="100mm"
   viewBox="0 0 100 100"
   version="1.1"
   id="svg1"
   xml:space="preserve"
   xmlns="http://www.w3.org/2000/svg"
   xmlns:svg="http://www.w3.org/2000/svg"><defs
     id="defs1" /><g
     id="layer1"
     style="display:inline"><path
       style="fill:#000000;fill-opacity:1;fill-rule:evenodd;stroke:none;stroke-width:1.427;stroke-dasharray:none;stroke-opacity:1"
       d="m 50.145417,91.237842 c 0.769384,-0.337179 1.645885,-0.124465 2.417736,-0.381749 0.05691,-0.01897 0.06906,-0.1127 0.127251,-0.127249 1.363356,0 -0.142687,0.08998 0.508998,-0.127249 0.294478,-0.09816 1.018743,-3.7e-4 1.272492,-0.12725 0.05365,-0.02683 0.07034,-0.10828 0.127249,-0.127249 0.229049,-0.07635 0.534447,0.07635 0.763497,0 0.154483,-0.0515 0.354272,-0.215817 0.508998,-0.254499 0.261733,-0.06543 0.62453,0.04437 0.890743,0 0.132308,-0.02205 0.250222,-0.100943 0.381749,-0.127249 0.781029,-0.156206 1.974427,0 2.799487,0 0.484048,0 1.749484,0.137919 2.163239,0 0.05691,-0.01897 0.07034,-0.10828 0.127249,-0.127249 0.378372,-0.126124 0.879168,0.07867 1.272492,0 0.255537,0.0292 0.41465,-0.199099 0.636249,-0.254499 0.278424,-0.06961 0.61232,-0.05764 0.890744,-0.127249 0.230314,0.0767 0.236661,-0.206137 0.381748,-0.254499 0.08048,-0.02683 0.172199,0.02057 0.2545,0 0.230312,0.0767 0.236662,-0.206137 0.381747,-0.254499 0.08048,-0.02683 0.178622,0.03794 0.2545,0 0.107307,-0.05365 0.143107,-0.209942 0.254497,-0.254498 0.11815,-0.04726 0.267933,0.05691 0.381749,0 0.08483,-0.04242 0.06018,-0.187433 0.127248,-0.254499 0.277884,-0.277884 0.206603,-0.02645 0.508998,-0.12725 0.195469,-0.06516 0.0986,-0.277815 0.2545,-0.381748 0.07059,-0.04706 0.174019,0.02683 0.254497,0 0.2036,-0.06787 0.305401,-0.441131 0.508998,-0.508997 0.08048,-0.02683 0.178623,0.03794 0.2545,0 0.03794,-0.01897 -0.02999,-0.09726 0,-0.127249 0.217591,-0.217592 0.641056,-0.384154 0.890746,-0.508998 0.203793,-0.101896 0.317818,-0.381546 0.508995,-0.508997 0.354896,-0.236597 0.821013,-0.420093 1.145246,-0.636247 0.07874,-0.0525 0.559169,-0.43192 0.636246,-0.508998 0.154988,-0.154987 0.05961,-0.284301 0.254499,-0.381747 0.119972,-0.05999 0.261776,-0.06726 0.381748,-0.12725 0.232127,-0.116063 1.447527,-1.633121 1.654242,-1.90874 0.205759,-0.274346 0.565937,-0.793697 0.636247,-1.145245 0.02495,-0.124778 -0.02496,-0.256969 0,-0.381748 0.0372,-0.186008 0.208491,-0.324968 0.254498,-0.508997 0.08943,-0.357702 0.03653,-0.78237 0.12725,-1.145244 0.023,-0.09201 0.108648,-0.161495 0.127249,-0.254499 0.02495,-0.124778 -0.03086,-0.258298 0,-0.381748 0.01455,-0.05819 0.112701,-0.06905 0.127249,-0.127249 0.03086,-0.12345 -0.03086,-0.258298 0,-0.381748 0.01455,-0.0582 0.10828,-0.07034 0.127249,-0.12725 0.11803,-0.354088 0.119364,-1.383971 0.254499,-1.654241 0.05365,-0.107307 0.209943,-0.143108 0.254499,-0.254499 0.04726,-0.118148 -0.02496,-0.25697 0,-0.381748 0.03559,-0.177966 0.180005,-0.779005 0.254499,-0.890746 0.06655,-0.09982 0.200845,-0.147192 0.254498,-0.254498 0.111348,-0.222696 0.06482,-0.641041 0.12725,-0.890746 0.255881,-1.023525 -0.0042,0.26501 0.254498,-0.381748 0.114685,-0.28671 0.193939,-0.587946 0.254499,-0.890745 0.286455,-1.432273 0.42327,-3.100878 0.12725,-4.580978 -0.06589,-0.329451 -0.439739,-0.544452 -0.508998,-0.890744 -0.02496,-0.12478 0.02092,-0.25623 0,-0.381748 -0.01127,-0.06762 -0.573698,-1.189096 -0.636247,-1.272495 -0.07198,-0.09598 -0.192773,-0.151623 -0.254498,-0.254498 -0.138022,-0.230037 -0.134527,-0.523552 -0.254499,-0.763497 -0.185778,-0.371555 -0.353605,-0.62951 -0.508997,-1.017993 -0.176007,-0.440018 -0.06638,-0.0885 -0.381748,-0.508997 -0.127896,-0.170529 -0.181176,-0.45294 -0.254499,-0.636249 -0.20013,-0.500324 -0.533696,-0.940141 -0.763496,-1.399741 -0.08483,-0.169667 -0.194513,-0.329041 -0.254499,-0.508998 -0.02683,-0.08048 0.03151,-0.175733 0,-0.2545 -0.161395,-0.403487 -0.805669,-1.059436 -0.890746,-1.399743 -0.02057,-0.0823 0.02057,-0.172199 0,-0.254498 -0.09848,-0.393909 -0.164443,-0.146822 -0.381748,-0.508997 -0.07454,-0.124235 -0.125742,-0.50749 -0.254498,-0.636246 -0.06707,-0.06707 -0.187433,-0.06019 -0.254499,-0.127252 -0.217882,-0.217881 -0.233716,-0.644025 -0.381748,-0.890743 -0.06172,-0.102876 -0.209942,-0.143108 -0.254499,-0.2545 -0.04726,-0.118147 0.03086,-0.258297 0,-0.381746 -0.04795,-0.191813 -0.403421,-0.425096 -0.508997,-0.636249 -0.148529,-0.297059 -0.347016,-0.493525 -0.508999,-0.763495 -0.07454,-0.124235 -0.125741,-0.50749 -0.254497,-0.636246 -0.06707,-0.06707 -0.187434,-0.06018 -0.254498,-0.127252 -0.181467,-0.181464 -0.105418,-0.43747 -0.2545,-0.636246 -0.05691,-0.07588 -0.193781,-0.05438 -0.254497,-0.127249 -0.22156,-0.265871 -0.376722,-0.885719 -0.636249,-1.145243 -0.06707,-0.06707 -0.187431,-0.06018 -0.254498,-0.127252 -0.149965,-0.149963 -0.243726,-0.347972 -0.381748,-0.508997 -0.117115,-0.136634 -0.289161,-0.227433 -0.381749,-0.381746 -0.04365,-0.07274 0.0509,-0.186635 0,-0.2545 -0.127249,-0.169664 -0.41415,-0.192056 -0.508998,-0.381749 -0.05998,-0.11997 -0.05824,-0.266729 -0.127248,-0.381746 -0.212865,-0.354777 -0.62624,-0.498991 -0.890746,-0.763498 -0.06707,-0.06707 -0.06018,-0.187431 -0.127249,-0.254497 -0.06707,-0.06707 -0.201888,-0.04833 -0.254498,-0.127249 -0.403193,-0.60479 0.48872,0.106971 -0.127251,-0.508997 -0.219816,-0.219819 -0.605808,-0.320876 -0.763495,-0.636249 -0.112427,-0.224854 -0.167354,-0.6027 -0.381749,-0.763495 -0.122346,-0.09176 -0.273605,-0.146357 -0.381748,-0.2545 -0.09656,-0.09655 -0.121185,-0.502933 -0.254498,-0.636246 -0.06707,-0.06707 -0.201887,-0.04833 -0.2545,-0.127249 -0.04706,-0.07058 0.02683,-0.174019 0,-0.2545 -0.08313,-0.249386 -0.350446,-0.350446 -0.508995,-0.508997 -0.05332,-0.05332 -0.08869,-0.304626 -0.127251,-0.381747 -0.05365,-0.107307 -0.187949,-0.154678 -0.254497,-0.2545 -0.128755,-0.19313 -0.16323,-0.45371 -0.254501,-0.636246 -0.135606,-0.271214 -0.535664,-0.461753 -0.636246,-0.763495 -0.183647,-0.550942 0.243264,0.04677 -0.127248,-0.508997 -0.138814,-0.208219 -0.429422,-0.397518 -0.508998,-0.636249 -0.02683,-0.08048 0.04706,-0.183912 0,-0.254497 -0.05261,-0.07892 -0.201888,-0.04834 -0.2545,-0.127249 -0.05579,-0.08369 -0.07351,-0.903923 -0.254497,-1.145246 -0.05691,-0.07588 -0.201888,-0.04833 -0.2545,-0.127249 -0.02297,-0.03445 -0.209429,-0.800608 -0.254498,-0.890746 -0.159118,-0.318236 -0.219244,-0.692986 -0.381749,-1.017995 -0.02683,-0.05365 -0.115485,-0.06843 -0.127248,-0.127249 -0.03327,-0.16637 0.04115,-0.344398 0,-0.508997 -0.01029,-0.04115 -0.103722,0.03529 -0.127249,0 -0.186328,-0.27949 -0.156533,-0.724099 -0.2545,-1.017995 -0.07822,-0.234654 -0.27496,-0.549918 -0.381749,-0.763495 -0.05347,-0.10694 -0.05329,-0.435044 -0.127249,-0.508998 -0.02999,-0.02999 -0.113836,0.04024 -0.127248,0 -0.04024,-0.120719 0.05691,-0.267933 0,-0.381749 -0.04242,-0.08483 -0.201888,-0.04833 -0.2545,-0.127248 -0.254498,-0.381749 0.127251,-0.127249 0,-0.381749 -0.135816,-0.271635 -0.179771,-0.464592 -0.254498,-0.763495 -0.06549,-0.261959 -0.306813,-0.411446 -0.381748,-0.636249 -0.105585,-0.316751 -0.176705,-0.706824 -0.254498,-1.017995 -0.122473,-0.489884 -0.513866,-0.910211 -0.636249,-1.399741 -0.02058,-0.0823 0.03794,-0.178623 0,-0.2545 -0.01897,-0.03794 -0.108278,0.03794 -0.127248,0 -0.03794,-0.07588 0.02683,-0.174019 0,-0.254497 -0.01897,-0.05691 -0.108281,-0.07034 -0.127249,-0.127252 -0.05365,-0.160956 0.04115,-0.344394 0,-0.508994 -0.07835,-0.313407 -0.289692,-0.61458 -0.381749,-0.890747 -0.06915,-0.207459 -0.02973,-0.568449 -0.127249,-0.763497 -0.185465,-0.37093 -0.275814,-0.848762 -0.381748,-1.272493 -0.04601,-0.184028 -0.217297,-0.32299 -0.254498,-0.508997 -0.02495,-0.124778 0.03086,-0.258299 0,-0.381749 -0.0291,-0.11639 -0.216561,-0.140684 -0.2545,-0.254497 -0.0306,-0.09179 -0.05575,-0.564756 -0.127249,-0.636249 -0.02999,-0.02999 -0.08483,0 -0.127248,0 -2.43903,0 0.726183,0.04991 -1.399744,-0.127249 -0.961313,-0.08011 -1.857049,-0.06601 -2.799485,-0.254497 -0.489283,-0.09786 -1.034621,0.08206 -1.526992,0 -0.213342,-0.03556 -0.431065,-0.05886 -0.636246,-0.127251 -0.05691,-0.01897 -0.07034,-0.108279 -0.127252,-0.127249 -0.651959,-0.217318 -1.709798,0.141589 -2.417736,0 -0.678534,-0.135708 -1.335264,-0.127249 -2.03599,-0.127249 -0.102428,0 -1.05102,0.09422 -1.145246,0 -0.02999,-0.02999 0.02999,-0.09725 0,-0.127249 -0.01273,-0.01273 -0.369022,-0.01273 -0.381746,0 -0.07997,0.07997 0,0.782095 0,0.890744 0,0.215318 0.0675,0.561012 0,0.763498 -0.151297,0.45389 -0.308938,0.87237 -0.508997,1.272492 -0.110406,0.220813 -0.07802,0.841515 -0.254501,1.017995 -0.02999,0.02999 -0.09726,-0.02999 -0.127248,0 -0.03368,0.03368 0,0.329353 0,0.381749 0,0.05933 -0.187743,0.375486 -0.254498,0.508997 -0.03842,0.07683 0.05882,0.322927 0,0.381749 -0.02999,0.02999 -0.09726,-0.02999 -0.127251,0 -0.08998,0.08998 0.04024,0.261027 0,0.381749 -0.04393,0.131804 -0.191378,0.255505 -0.254497,0.381746 -0.03794,0.07588 0.03794,0.178623 0,0.2545 -0.09186,0.183721 -0.16264,0.325276 -0.2545,0.508997 -0.05691,0.113816 0.05691,0.267933 0,0.381746 -0.01897,0.03794 -0.08483,0 -0.127249,0 -0.04242,0.08483 -0.09726,0.164521 -0.127249,0.2545 -0.0587,0.176102 -0.05763,0.624261 -0.127249,0.763495 -0.184576,0.369152 -0.36735,0.847551 -0.508997,1.272495 -0.02683,0.08048 0.02683,0.174019 0,0.254498 -0.08851,0.265536 -0.293238,0.370713 -0.381749,0.636249 -0.06119,0.183557 -0.04374,0.46923 -0.127249,0.636246 -0.194029,0.388054 -0.10088,-0.232733 -0.2545,0.381748 -0.02058,0.0823 0.02683,0.17402 0,0.254498 -0.04224,0.126719 -0.212259,0.255029 -0.254497,0.381749 -0.02683,0.08048 0.02683,0.174019 0,0.254497 -0.12328,0.36984 -0.537718,0.751126 -0.636249,1.145244 -0.02058,0.0823 0.03794,0.178623 0,0.2545 -0.104423,0.208846 -0.609206,0.709419 -0.763495,1.017995 -0.225078,0.450157 -0.348713,0.968441 -0.636246,1.399743 -0.19707,0.295604 -0.655442,0.821077 -0.763497,1.145244 -0.02683,0.08048 0.03151,0.175734 0,0.254498 -0.300064,0.750165 -0.141537,0.148679 -0.381747,0.508997 -0.242982,0.364471 -0.374173,0.795811 -0.636248,1.145246 -0.07198,0.09598 -0.200846,0.147191 -0.254498,0.254498 -0.03794,0.07588 0.02683,0.174019 0,0.254497 -0.103576,0.310729 -0.532672,0.58002 -0.636246,0.890746 -0.02683,0.08048 0.02683,0.174019 0,0.2545 -0.07113,0.213374 -0.433641,0.410176 -0.508997,0.636247 -0.02683,0.08048 0.02683,0.174019 0,0.254497 -0.03794,0.113816 -0.216562,0.140684 -0.254501,0.2545 -0.09373,0.281205 -0.06765,0.355968 -0.254497,0.636246 -0.248155,0.372232 -0.74849,1.257488 -1.017995,1.526993 -0.154987,0.154987 -0.284303,0.0596 -0.381749,0.2545 -0.113014,0.226028 -0.190251,0.572 -0.381748,0.763495 -0.309063,0.309062 -0.186854,-0.03784 -0.381749,0.2545 -0.149162,0.223745 -0.321006,0.575503 -0.508998,0.763495 -0.06706,0.06707 -0.18743,0.06018 -0.254497,0.127248 -0.134133,0.134133 -0.102746,0.395182 -0.2545,0.508998 -0.107305,0.08048 -0.274442,0.04677 -0.381746,0.127248 -0.151755,0.113816 -0.135999,0.360874 -0.2545,0.508998 -0.149892,0.187365 -0.375899,0.309353 -0.508998,0.508997 -0.105222,0.157835 -0.149275,0.351166 -0.254497,0.508998 -0.127249,0.190876 -0.2545,0.127251 -0.381749,0.381749 -0.03794,0.07588 0.05999,0.194513 0,0.2545 -0.05999,0.05998 -0.183914,-0.04706 -0.254497,0 -0.249606,0.166401 -0.539816,1.228748 -0.763498,1.526992 -0.112241,0.149654 -0.419428,0.329861 -0.508997,0.508998 -0.05999,0.11997 -0.04677,0.274441 -0.127249,0.381746 -0.05691,0.07588 -0.187434,0.06018 -0.2545,0.127251 -0.154575,0.154575 -0.412708,0.570915 -0.508998,0.763495 -0.01897,0.03794 0,0.08483 0,0.127249 -0.08483,0.169666 -0.135998,0.360873 -0.254497,0.508997 -0.05925,0.07406 -0.197591,0.05137 -0.2545,0.127249 -0.08048,0.107307 -0.06726,0.261779 -0.127249,0.381749 -0.136348,0.272698 -0.500811,0.492625 -0.636246,0.763497 -0.03794,0.07588 0.03794,0.17862 0,0.254498 -0.10174,0.203483 -0.381807,0.318211 -0.508997,0.508997 -0.237543,0.356314 -0.341035,0.850032 -0.636247,1.145244 -0.02999,0.02999 -0.09726,-0.02999 -0.127251,0 -0.10814,0.108143 -0.206134,0.236662 -0.254497,0.381748 -0.02683,0.08048 0.02683,0.17402 0,0.2545 -0.06333,0.18999 -0.396367,0.340051 -0.508998,0.508998 -0.230558,0.345834 -0.338635,0.804521 -0.508997,1.145244 -0.0811,0.1622 -0.325679,0.340788 -0.381749,0.508997 -0.02683,0.08048 0.02683,0.174019 0,0.254497 -0.09305,0.279152 -0.415946,0.484347 -0.508998,0.763498 -0.04024,0.120719 0.08998,0.291769 0,0.381746 -0.02999,0.02999 -0.09725,-0.02999 -0.127248,0 -0.130027,0.13003 -0.09505,0.475231 -0.127249,0.636249 -0.04841,0.242067 -0.313886,0.432663 -0.381749,0.636246 -0.04073,0.122203 0.06107,0.386869 0,0.508998 -0.281389,0.562782 -0.217239,1.325223 -0.508997,1.908741 -0.06837,0.136739 0.04908,0.36177 0,0.508997 -0.107133,0.321398 -0.0486,0.57613 -0.127249,0.890744 -0.04814,0.19255 -0.206362,0.443698 -0.2545,0.636249 -0.07646,0.305842 0.02643,0.328869 -0.127249,0.636246 -0.107021,0.214043 0,2.415637 0,2.799485 0,0.535823 -0.104944,1.256762 0,1.781491 0.04072,0.203591 0.188569,0.438457 0.2545,0.636247 0.03817,0.114524 -0.03818,0.267223 0,0.381748 0.0762,0.2286 0.178298,0.0259 0.254498,0.254498 0.05365,0.16096 -0.09411,0.367827 0,0.508998 0.05261,0.07892 0.187433,0.06018 0.2545,0.127249 0.062,0.062 0.09448,0.537929 0.127249,0.636247 0.16143,0.484295 0.42863,0.857262 0.636246,1.272494 0.08902,0.178037 0.0342,0.450151 0.127248,0.636247 0.05366,0.107306 0.200846,0.147192 0.2545,0.254498 0.09833,0.196664 0.156166,0.439583 0.254498,0.636247 0.05365,0.107306 0.216561,0.140683 0.2545,0.254499 0.02683,0.08048 -0.02683,0.174019 0,0.254498 0.07545,0.226355 0.39597,0.721206 0.508997,0.890746 0.06655,0.09982 0.18795,0.154676 0.254498,0.254499 0.124169,0.186251 0.422857,0.632325 0.508997,0.890745 0.01342,0.04024 -0.03794,0.10828 0,0.127249 0.07588,0.03794 0.194514,-0.05998 0.2545,0 0.05999,0.05999 -0.02058,0.172199 0,0.254499 0.0079,0.03151 0.230447,0.484945 0.254498,0.508998 0.144219,0.144217 0.403548,0.170848 0.508997,0.381748 0.03607,0.07213 0.353862,0.60836 0.381749,0.636247 0.0589,0.05889 0.607282,0.451068 0.636246,0.508997 0.05999,0.119972 0.04677,0.274442 0.127249,0.381748 0.08947,0.119299 0.509151,0.297016 0.636249,0.381748 0.260276,0.173518 0.486624,0.497811 0.763495,0.636247 0.126672,0.06334 1.071075,0.434828 1.145243,0.508997 0.02999,0.02999 -0.02999,0.09726 0,0.12725 0.03443,0.03443 0.438015,0.346256 0.508998,0.381747 0.156424,0.07821 0.385334,0.0036 0.508997,0.12725 0.07795,0.07795 0.108331,0.333025 0.2545,0.381748 0.08048,0.02683 0.174019,-0.02683 0.254498,0 0.2545,0.08483 0.381748,0.551414 0.636246,0.636247 0.08048,0.02683 0.174019,-0.02683 0.2545,0 0.143719,0.04791 0.645739,0.311094 0.763495,0.381748 0.102875,0.06172 0.147193,0.200846 0.2545,0.254499 0.07588,0.03794 0.171312,-0.01664 0.254497,0 0.226574,-0.255556 0.381749,0.212082 0.508998,0.254498 0.122203,0.04073 0.386868,-0.06106 0.508997,0 0.359569,0.179784 0.557334,0.01611 0.890746,0.12725 0.05691,0.01897 0.06905,0.1127 0.127249,0.127249 0.1646,0.04115 0.357246,-0.07588 0.508998,0 0.26974,0.13487 0.813048,0.315309 1.145246,0.381748 0.16637,0.03327 0.344395,-0.04115 0.508997,0 0.655326,0.163832 1.246278,0.376505 1.908739,0.508997 0.203925,0.04078 0.432321,-0.04078 0.636246,0 0.09301,0.0186 0.162486,0.104246 0.2545,0.12725 0.1646,0.04115 0.344398,-0.04115 0.508998,0 0.302061,0.07552 0.588682,0.178983 0.890746,0.254499 0.239527,0.05988 0.523968,-0.05988 0.763495,0 0.571907,0.142976 1.180748,0.154375 1.781492,0.254498 0.575916,0.09599 1.209498,-0.114398 1.78149,0 0.131527,0.0263 0.248436,0.112437 0.381749,0.12725 0.362402,0.04027 0.889571,-0.07658 1.272492,0 0.718415,0.143683 1.421413,0.127249 2.163239,0.127249 0.328083,0 1.10086,0.149442 1.399744,0 0.305868,-0.152935 0.59383,-0.339332 0.890746,-0.508997 z"
       id="path26" /><path
       style="fill:#000000;fill-opacity:1;fill-rule:evenodd;stroke:none;stroke-width:1.427;stroke-dasharray:none;stroke-opacity:1"
       d="m 64.142846,46.955067 c -0.01191,-0.512101 0.54062,-0.921623 0.636246,-1.399744 0.02495,-0.124777 -0.05691,-0.267933 0,-0.381749 0.04242,-0.08483 0.201888,-0.04833 0.254498,-0.127248 0.05971,-0.08956 0.174074,-0.984396 0.2545,-1.145244 0.09326,-0.186515 0.331554,-0.308224 0.381748,-0.508998 0.0699,-0.279619 0.03562,-0.615846 0.127249,-0.890746 0.04836,-0.145087 0.206137,-0.236662 0.254498,-0.381749 0.115368,-0.346104 0.146325,-0.693472 0.2545,-1.017994 0.06786,-0.203584 0.333335,-0.394179 0.381748,-0.636247 0.01027,-0.05136 0.114499,-0.865245 0.127249,-0.890746 0.04242,-0.08483 0.201888,-0.04833 0.254497,-0.127249 0.07255,-0.108815 0.198197,-1.174535 0.254501,-1.399743 0.06558,-0.262332 0.281082,-0.511829 0.381748,-0.763495 0.165942,-0.414859 0.309584,-0.873668 0.508998,-1.272493 0.161639,-0.323283 0.152085,0.130318 0.254497,-0.381748 0.02495,-0.12478 -0.05691,-0.267933 0,-0.381749 0.04242,-0.08483 0.197591,-0.05137 0.2545,-0.127249 0.195675,-0.260903 0.174631,-0.858258 0.254498,-1.017995 0.04242,-0.08483 0.187433,-0.06018 0.2545,-0.127248 0.22742,-0.227423 0.06208,-0.506942 0.254497,-0.763498 0.163579,-0.218104 0.325747,-0.228986 0.381749,-0.508997 0.02495,-0.124778 -0.04726,-0.2636 0,-0.381749 0.04456,-0.11139 0.192773,-0.151622 0.254497,-0.254498 0.415766,-0.692941 0.530353,-1.569701 0.890747,-2.29049 0.171875,-0.343749 0.385195,-0.646588 0.508997,-1.017992 0.0553,-0.165915 0.04904,-0.352576 0.127249,-0.508997 0.05365,-0.107307 0.192774,-0.151625 0.254499,-0.2545 0.227422,-0.379037 0.02708,-0.766207 0.254499,-1.145244 0.159813,-0.266356 0.328721,-0.190841 0.381748,-0.508998 0.02789,-0.167356 -0.02789,-0.34164 0,-0.508997 0.0448,-0.268817 0.328245,-0.495985 0.381748,-0.763498 0.02496,-0.124777 -0.03086,-0.258296 0,-0.381746 0.01455,-0.05819 0.112701,-0.06906 0.127249,-0.127251 0.03086,-0.123449 -0.02496,-0.256969 0,-0.381746 0.07787,-0.389364 0.301362,-0.743313 0.381748,-1.145246 0.05995,-0.29975 0.0668,-0.588481 0.12725,-0.890744 0.08972,-0.44858 0.290872,-0.818113 0.381748,-1.272495 0.0855,-0.427519 0,-0.961713 0,-1.399741 0,-0.85176 0.154708,-2.280444 0,-3.053985 -0.0186,-0.093 -0.104246,-0.162486 -0.12725,-0.2545 -0.111837,-0.447347 -0.142662,-0.952394 -0.254498,-1.399741 -0.08982,-0.359294 -0.419175,-0.658704 -0.508998,-1.017995 -0.210377,-0.84151 -0.74872,-1.592125 -1.272494,-2.29049 -0.176383,-0.235177 -0.63611,-0.4664 -0.763495,-0.636246 -0.08048,-0.107307 -0.05285,-0.270142 -0.12725,-0.381749 -0.256222,-0.384334 -0.667331,-0.33836 -0.890745,-0.6362456 -0.08048,-0.107307 -0.04677,-0.274442 -0.127249,-0.381749 -0.143997,-0.191992 -0.78091,-0.52641 -0.890746,-0.636246 -0.149966,-0.1499659 -0.216141,-0.3765099 -0.381749,-0.5089979 -0.06624,-0.05299 -0.183912,0.04706 -0.254498,0 -0.07892,-0.05261 -0.06018,-0.187433 -0.127248,-0.254497 -0.04167,-0.04167 -0.718958,-0.602842 -0.763498,-0.636249 -0.200684,-0.150511 -0.694105,-0.52388 -0.890746,-0.636246 -0.329396,-0.188227 -0.714486,-0.2813659 -1.017995,-0.5089969 -0.143965,-0.107974 -0.211024,-0.32484 -0.381746,-0.381749 -0.08048,-0.02683 -0.175734,0.03151 -0.2545,0 -0.141997,-0.0568 -0.239752,-0.197699 -0.381749,-0.254498 -0.07876,-0.03151 -0.172199,0.02059 -0.254497,0 -0.475081,-0.118771 -0.918419,-0.285482 -1.399744,-0.381748 -0.581776,-0.116356 -1.314241,0 -1.908739,0 -0.622995,0 -1.43773,-0.149564 -2.035989,0 -0.0582,0.01455 -0.08483,0.08483 -0.127252,0.127248 -0.127249,0.04242 -0.249438,0.105199 -0.381746,0.127252 -0.55889,0.09315 -1.101471,0.19749 -1.654244,0.381746 -0.145084,0.04836 -0.233378,0.217408 -0.381746,0.2545 -0.675836,0.168958 -0.119427,-0.182843 -0.636246,0.127249 -0.232894,0.139737 -0.393324,0.3875349 -0.636249,0.5089969 -0.156424,0.07821 -0.363482,0.03024 -0.508997,0.127249 -0.127249,0.08483 -0.146357,0.273608 -0.254498,0.381749 -0.174887,0.174886 -0.406609,0.289893 -0.636246,0.381748 -0.07877,0.03151 -0.175733,-0.03151 -0.2545,0 -1.236348,0.494538 0.167704,0.0016 -0.508997,0.508998 -0.30674,0.230052 -0.828146,0.319145 -1.145244,0.6362459 -0.06707,0.06707 -0.06018,0.187433 -0.127249,0.2545 -0.06707,0.06706 -0.177321,0.07212 -0.2545,0.127249 -0.499377,0.356698 -0.919176,0.784817 -1.399744,1.1452426 -0.636584,0.477438 -1.421391,0.811546 -2.035987,1.272493 -0.285041,0.21378 -0.478459,0.549719 -0.763497,0.763497 -0.322665,0.241999 -0.594728,0.467479 -0.890747,0.763495 -0.149963,0.149966 -0.381746,0.212082 -0.508997,0.381749 -0.08048,0.107307 -0.04677,0.274442 -0.127249,0.381749 -0.09176,0.122346 -0.28621,0.135075 -0.381749,0.254497 -0.148507,0.18564 -0.926081,1.169961 -1.017994,1.399744 -0.370375,0.925938 -0.754589,1.833663 -1.017995,2.799485 -0.08125,0.297915 -0.203732,0.586152 -0.254498,0.890746 -0.02093,0.125518 0.04024,0.26103 0,0.381749 -0.04836,0.145087 -0.212484,0.234698 -0.2545,0.381748 -0.107341,0.375695 -0.0492,0.882235 -0.127249,1.272493 -0.126756,0.633788 -0.38124,1.269957 -0.508997,1.908741 -0.03777,0.188878 0.133376,0.884618 0,1.017995 -0.02999,0.02999 -0.127249,-0.04242 -0.127249,0 0,0.05143 1.304385,0.36441 1.399744,0.381746 0.638381,0.11607 1.263862,0.310097 1.908738,0.381749 0.379416,0.04216 0.764342,-0.0254 1.145247,0 0.257437,0.01717 0.506378,0.105822 0.763495,0.127248 0.960614,0.08005 1.961348,0 2.926736,0 0.628875,0 1.168604,0.0397 1.78149,0.127252 0.769712,0.109958 1.639083,0 2.417738,0 0.03029,0 0.706954,0.05654 0.763495,0 0.149966,-0.149966 -0.03486,-0.427051 0,-0.636249 0.01558,-0.09355 0.108649,-0.161494 0.127252,-0.254497 0.02495,-0.124778 -0.02093,-0.256231 0,-0.381749 0.0269,-0.161422 0.137998,-0.901494 0.254497,-1.017995 0.02999,-0.02999 0.108281,0.03794 0.127249,0 0.0884,-0.176811 0.04213,-0.889873 0.127251,-1.145244 0.117919,-0.353761 0.403431,-0.574053 0.508995,-0.890746 0.02683,-0.08048 -0.03794,-0.17862 0,-0.254497 0.01897,-0.03794 0.09726,0.02999 0.127251,0 0.08489,-0.0849 0.194702,-0.55652 0.254498,-0.636247 0.05691,-0.07588 0.201887,-0.04833 0.2545,-0.127251 0.04706,-0.07059 -0.05999,-0.194511 0,-0.254497 0.05999,-0.05999 0.17862,0.03794 0.254497,0 0.03794,-0.01897 -0.02352,-0.09196 0,-0.127249 0.09982,-0.149736 0.22079,-0.301271 0.381749,-0.381749 0.108828,-0.05441 0.27292,-0.07284 0.381749,-0.127249 0.23832,-0.119163 0.514696,-0.426066 0.763494,-0.508997 0.313344,-0.10445 0.462548,-0.104024 0.763498,-0.2545 0.113813,-0.05691 0.267933,0.05691 0.381746,0 0.03794,-0.01897 -0.02999,-0.09726 0,-0.127249 0.02937,-0.02937 0.414433,-0.221816 0.508998,-0.127249 0.100973,0.100973 0,0.836232 0,1.017995 0,0.635757 0.150608,3.770763 0,4.071978 -0.178928,0.357854 -0.233426,0.774446 -0.381747,1.145246 1.044718,0.745373 -0.359563,0.464624 -0.381748,0.508997 -0.03794,0.07588 0.03794,0.178621 0,0.254498 -0.106495,0.212989 -0.397222,0.412692 -0.508998,0.636246 -0.08815,0.1763 -0.14936,0.478541 -0.2545,0.636249 -0.491868,0.737804 -0.06121,0.09423 -0.381746,0.254497 -0.21962,0.10981 -0.113816,0.321421 -0.2545,0.508998 -0.05691,0.07588 -0.187431,0.06018 -0.254497,0.127248 -0.02999,0.02999 0.01897,0.08931 0,0.127252 -0.08048,0.160959 -0.301271,0.220787 -0.381749,0.381746 -0.03794,0.07588 0,0.169667 0,0.2545 -0.04242,0.08483 -0.07464,0.175583 -0.127249,0.254497 -0.08483,0.127252 -0.303064,0.12336 -0.381749,0.2545 -0.08998,0.149964 -0.0623,0.346618 -0.127248,0.508998 -0.08969,0.224221 -0.388313,0.394875 -0.508998,0.636246 -0.07821,0.156424 -0.04904,0.352573 -0.127251,0.508997 -0.05365,0.107308 -0.182515,0.158523 -0.254498,0.254498 -0.438978,0.585306 0.258763,-0.133644 -0.254497,0.636249 -0.02352,0.03529 -0.09726,-0.02999 -0.127251,0 -0.343959,0.343958 0.576064,2.858645 0.763497,3.308482 0.218874,0.525301 0.55921,0.995847 0.763495,1.526992 0.307136,0.798553 0.534998,1.635091 0.890746,2.417739 0.268891,0.591561 0.677749,1.109848 1.017995,1.654241 0.279382,0.447008 0.501764,0.94171 0.763495,1.399744 0.225166,0.394036 0.56066,0.739568 0.763498,1.145244 0.452083,0.904168 0.952674,1.7781 1.399743,2.672236 0.182425,0.364849 0.537814,0.679471 0.763495,1.017995 0.0744,0.111603 0.0324,0.2869 0.127249,0.381748 0.05999,0.05998 0.194514,-0.05999 0.2545,0 0.636834,0.636834 -1.173419,-0.117123 1.017995,0.508998 z"
       id="path27" /><path
       style="fill:#000000;fill-opacity:1;fill-rule:evenodd;stroke:none;stroke-width:1.427;stroke-dasharray:none;stroke-opacity:1"
       d="m 48.948511,91.688482 c 0.119973,0 0.359916,0.11997 0.359916,0 0,-0.119972 -0.477557,0.02352 -0.359916,0 0.578702,-0.115742 1.139058,-0.174847 1.7096,-0.269938 0.583605,-0.09727 1.213726,0.08369 1.799577,0 0.279929,-0.03999 0.546685,-0.127331 0.80981,-0.179957 0.345321,-0.06906 0.730988,0.04982 1.079746,0 0.841346,-0.120192 1.678112,-0.219699 2.51941,-0.359915 0.233458,-0.03891 0.486373,0.03891 0.719831,0 0.504899,-0.08415 1.019638,-0.107101 1.529641,-0.179959 0.09389,-0.01341 0.179956,-0.05999 0.269936,-0.08998 0.119972,-0.02999 0.237495,-0.07249 0.359915,-0.08998 0.562687,-0.08039 1.146212,-0.08606 1.7096,-0.179959 0.306298,-0.05105 0.605256,-0.211029 0.89979,-0.269936 0.480377,-0.09608 0.968166,-0.152064 1.439661,-0.269939 0.332375,-0.08309 0.601422,-0.300709 0.899787,-0.449892 0.292227,-0.146113 0.566775,-0.206859 0.80981,-0.449895 0.346287,-0.461716 0.163897,-0.253875 0.539875,-0.629854 0.1358,-0.135797 0.329922,-0.209949 0.449895,-0.359915 0.05925,-0.07406 0.04118,-0.188605 0.08998,-0.269936 0.04365,-0.07274 0.142018,-0.104081 0.179956,-0.179956 0.152755,-0.305512 0.08998,-0.757629 0.08998,-1.079749 0,-0.08998 0.03544,-0.187232 0,-0.269936 -0.604499,-1.410493 -3.662926,-1.29037 -4.858861,-1.259705 -0.780137,0.02 -1.5693,-0.03604 -2.339449,0.08998 -0.890442,0.145709 -1.735254,0.496215 -2.609389,0.719831 -0.416036,0.106428 -0.847447,0.149696 -1.259703,0.269935 -0.310113,0.09045 -0.594892,0.253204 -0.899789,0.359918 -0.295556,0.103445 -0.606592,0.159986 -0.89979,0.269936 -0.188389,0.07065 -0.350787,0.201179 -0.539872,0.269936 -0.143727,0.05227 -0.304808,0.04162 -0.449895,0.08998 -0.201869,0.06729 -0.406333,0.269935 -0.629853,0.269935"
       id="path28" /></g></svg>
