<?xml version="1.0" encoding="UTF-8" standalone="no"?>
<!-- Created with Inkscape (http://www.inkscape.org/) -->

<svg
   width="100mm"
   height="100mm"
   viewBox="0 0 100 100"
   version="1.1"
   id="svg1"
   xml:space="preserve"
   xmlns="http://www.w3.org/2000/svg"
   xmlns:svg="http://www.w3.org/2000/svg"><defs
     id="defs1" /><g
     id="layer1"><path
       style="fill:#000000;fill-opacity:1;stroke:#000000;stroke-width:1.427;stroke-dasharray:none;stroke-opacity:1"
       d="m 23.934383,21.77489 c -0.239944,0.05999 -0.779817,-0.05999 -0.719831,0.179957 0.05998,0.239944 0.959774,-0.239943 0.719831,-0.179957 -0.479888,0.119971 -0.956785,0.252609 -1.439663,0.359915 -0.05856,0.01301 -0.137541,-0.04242 -0.179957,0 -0.04242,0.04242 0.05365,0.153131 0,0.179958 -0.20601,0.103005 -1.179733,0.114975 -1.439662,0.179957 -0.422314,0.105579 -0.852636,0.377047 -1.259705,0.539874 -0.134074,0.33436 -0.678814,0.1063 -0.899789,0.179958 -0.286734,0.09558 -0.564438,0.456036 -0.899788,0.539873 -0.349629,0.08741 -0.730118,0.09255 -1.079747,0.179958 -0.42592,0.10648 -0.841371,0.400429 -1.259704,0.539873 -0.776841,0.258947 -3.432857,1.273364 -3.959071,1.799578 -0.451102,0.451101 -0.805475,1.165391 -1.259705,1.61962 -0.09485,0.09485 -0.2650689,0.08511 -0.3599149,0.179957 -0.7303471,0.730347 -0.8918225,2.479577 -1.0797465,3.419197 -0.1247381,0.623691 -0.4185066,1.192744 -0.5398733,1.799579 -0.077103,0.385514 -0.033518,0.893604 -0.179958,1.259705 -0.080325,0.200811 -0.2915211,0.334687 -0.3599153,0.539872 -0.056908,0.170722 0.029585,0.362365 0,0.539874 -0.089361,0.536162 -0.2316356,1.106498 -0.3599156,1.619621 -0.065064,0.260254 -0.2948517,0.459573 -0.3599156,0.71983 -0.029097,0.11639 0.029098,0.243525 0,0.359916 0.1084656,0.325712 -0.2915211,0.33469 -0.3599154,0.539871 -0.1799579,0.539875 0.089979,0.179959 0,0.539875 -0.092014,0.368056 -0.2855121,0.707728 -0.3599156,1.079746 -0.047057,0.235283 0.058195,0.487053 0,0.71983 -0.092613,0.370451 -0.2673027,0.709295 -0.3599156,1.079746 -0.058195,0.232781 0.075877,0.492202 0,0.719834 -0.026826,0.08048 -0.1531313,0.09948 -0.1799577,0.179956 -0.075877,0.227632 0.033933,0.482298 0,0.719831 -0.1651426,1.155999 -0.1799577,2.247723 -0.1799577,3.419197 0,0.543555 -0.1063842,1.267658 0,1.799579 0.071989,0.359945 0.2879265,0.719802 0.3599154,1.079746 0.1539367,0.769684 -0.2552118,0.389367 0.1799579,1.259705 0.075877,0.151752 0.2840387,0.208161 0.3599154,0.359916 0.053653,0.107304 -0.023529,0.242273 0,0.359915 -0.3500559,0.499975 0.2948516,0.459576 0.3599156,0.719831 0.043646,0.174585 -0.035293,0.36341 0,0.539874 0.076192,0.380955 0.4455239,0.702347 0.5398733,1.079746 0.029098,0.11639 -0.037938,0.2461 0,0.359916 0.1203388,0.361016 0.6143918,0.657989 0.7198309,1.079746 0.2128314,0.851326 0.4108141,1.246073 0.8997889,1.979535 0.1409057,0.211357 1.6601128,1.886559 1.7995778,1.979536 0.264499,0.176332 0.533065,0.259723 0.719831,0.539872 0.185313,0.277971 1.167206,1.557956 1.259704,1.61962 0.09982,0.06655 0.260093,-0.06655 0.359916,0 0.270061,0.180041 0.486311,0.846228 0.719831,1.079746 0.04242,0.04242 0.126305,-0.02683 0.179958,0 0.01038,0.0052 1.233591,1.053635 1.259704,1.079749 0.04242,0.04242 -0.04242,0.137541 0,0.179956 1.199718,1.199719 -0.419901,-0.899789 0.539873,0.539875 0.27562,0.413427 0.102792,-0.07717 0.539874,0.359915 0.04242,0.04242 -0.04242,0.137541 0,0.179956 0.08483,0.08483 0.252609,-0.05365 0.359915,0 0.202356,0.10118 0.326705,0.468818 0.539874,0.539875 0.113815,0.03794 0.2461,-0.03794 0.359915,0 0.08048,0.02683 0.101192,0.148452 0.179958,0.179959 0.459277,0.183711 0.970389,0.203491 1.439662,0.359915 0.254498,0.08483 0.459575,0.294852 0.719831,0.359915 0.23278,0.0582 0.487051,-0.05819 0.719831,0 0.212593,0.05315 2.091731,0.607635 2.339451,0.359916 0.188672,-0.188675 -0.653657,-1.174965 -0.719831,-1.439664 -0.0291,-0.116388 0.05365,-0.252609 0,-0.359916 -0.190528,-0.381055 -0.624894,-0.605059 -0.719831,-1.079746 -0.08115,-0.405741 0.140963,-0.578866 -0.179958,-0.899789 -0.09485,-0.09485 -0.29993,-0.05998 -0.359915,-0.179957 -0.08048,-0.160959 0.04365,-0.365289 0,-0.539874 -0.253719,-1.01487 -0.106198,0.654957 -0.359916,-0.359915 -0.04365,-0.174583 0.06683,-0.372785 0,-0.539872 -0.09452,-0.236297 -0.459394,-0.298434 -0.539873,-0.539874 -0.03794,-0.113816 0.0291,-0.243526 0,-0.359916 -0.169059,-0.676232 -0.541615,-1.266669 -0.719831,-1.979536 -0.0976,-0.390382 -0.412624,-0.697997 -0.539874,-1.079746 -0.239678,-0.719034 -0.116588,-1.609471 -0.359915,-2.339451 -0.02683,-0.08048 -0.163321,-0.09677 -0.179958,-0.179959 -0.226917,-1.134586 0,-2.998988 0,-4.139028 0,-1.615432 -0.135952,-3.279309 0.179958,-4.858858 0.02595,-0.129723 -0.05189,-0.460386 0,-0.719831 0.02631,-0.131529 0.153652,-0.228388 0.179957,-0.359915 0.05882,-0.294106 -0.07274,-0.608817 0,-0.89979 0.03253,-0.130127 0.119972,-0.239943 0.179958,-0.359915 0.05999,-0.179959 0.142756,-0.353865 0.179958,-0.539875 0.09322,-0.466084 0.08725,-0.976132 0.179958,-1.439661 0.143543,-0.717717 0.573918,-1.42993 0.719831,-2.159492 0.03529,-0.176464 -0.03529,-0.363411 0,-0.539874 0.08959,-0.447969 0.41437,-0.820444 0.539873,-1.259705 0.110059,-0.385205 0.08241,-0.86953 0.179958,-1.259705 0.09435,-0.377397 0.463682,-0.698789 0.539873,-1.079747 0.03529,-0.176461 -0.02959,-0.362362 0,-0.539871 0.330538,-1.98323 -0.0095,0.203755 0.359916,-0.719831 0.279772,-0.699431 0.480996,-1.44299 0.719831,-2.159495 0.149572,-0.448717 0.544473,-0.64135 0.719831,-1.079746 0.297871,-0.744677 0.04834,-0.440486 0.539873,-1.259705 0.189874,-0.316455 0.534466,-0.590846 0.719831,-0.899787 0.36293,-0.604885 -0.0043,-0.414218 0.359916,-0.89979 0.413517,-0.551357 0.875888,-1.043895 1.259704,-1.61962 0.180244,-0.270365 0.575728,-0.431624 0.719831,-0.719831 0.288692,-0.577387 0.533032,-0.889528 0.89979,-1.439662 0.177485,-0.26623 0.577379,-0.434928 0.71983,-0.719831 0.02683,-0.05365 -0.04242,-0.137541 0,-0.179958 0.04242,-0.04242 0.137541,0.04242 0.179957,0 0.04242,-0.04242 -0.04242,-0.137541 0,-0.179958 0.10755,-0.107548 0.359915,0.194513 0.359915,-0.179957 0,-0.01325 -0.853876,0.02295 -0.899787,0 -0.17853,-0.08927 -0.35347,-0.297781 -0.539874,-0.359916 -0.113816,-0.03794 -0.2461,0.03794 -0.359916,0 -0.08048,-0.02683 -0.09766,-0.159383 -0.179956,-0.179958 -0.174585,-0.04365 -0.36529,0.04365 -0.539874,0 -0.0823,-0.02057 -0.09766,-0.159382 -0.179958,-0.179958 -0.290975,-0.07274 -0.62571,0.121814 -0.899789,0 -0.441939,-0.196417 -0.839803,-0.479887 -1.259704,-0.71983 z"
       id="path16" /><path
       style="fill:#000000;fill-opacity:1;stroke:#000000;stroke-width:1.427;stroke-dasharray:none;stroke-opacity:1"
       d="m 76.302091,50.928047 c -0.239943,-0.05999 -0.659844,-0.419902 -0.719831,-0.179956 -0.05999,0.239942 0.967161,0.179956 0.719831,0.179956 -1.180923,0 -1.409488,-0.35388 -2.339451,-0.539872 -0.5275,-0.105502 -1.090096,-0.183409 -1.619618,-0.359918 -0.08048,-0.02683 -0.119972,-0.11997 -0.179959,-0.179956 -0.119972,-0.05999 -0.229788,-0.147426 -0.359915,-0.179959 -0.174585,-0.04365 -0.412623,0.127251 -0.539874,0 -0.04242,-0.04242 0.04242,-0.137541 0,-0.179956 -0.03744,-0.03744 -1.710669,-0.870154 -1.799577,-0.89979 -0.113816,-0.03794 -0.252608,0.05365 -0.359915,0 -0.05365,-0.02683 0.04242,-0.137541 0,-0.179956 -0.160417,-0.16042 -0.528712,-0.0844 -0.719831,-0.179959 -0.510254,-0.255127 -0.986163,-0.597456 -1.439662,-0.89979 -0.477213,-0.31814 -0.421409,-0.09658 -1.079748,-0.359915 -0.157531,-0.06301 -0.208161,-0.284039 -0.359916,-0.359916 -0.496697,-0.248348 -1.112496,-0.415557 -1.619617,-0.71983 -0.294619,-0.176771 -0.323364,-0.50332 -0.539875,-0.719831 -0.04241,-0.04241 -0.126304,0.02683 -0.179959,0 -0.330467,-0.165235 -0.597577,-0.518359 -0.899787,-0.719831 -0.04991,-0.03327 -0.119972,0 -0.179959,0 -0.11997,-0.05999 -0.26507,-0.08511 -0.359915,-0.179959 -0.09484,-0.09484 -0.08511,-0.265067 -0.179956,-0.359915 -0.334233,-0.33423 -0.916038,-0.55612 -1.259706,-0.899787 -0.09484,-0.09485 -0.06835,-0.285512 -0.179959,-0.359916 -0.09982,-0.06655 -0.252608,0.05365 -0.359915,0 -0.35697,-0.178485 -0.56506,-0.676637 -0.899787,-0.899789 -0.111606,-0.0744 -0.26507,-0.08511 -0.359915,-0.179959 -0.09485,-0.09484 -0.09948,-0.252609 -0.179959,-0.359916 -0.475255,-0.633671 -1.288802,-1.094292 -1.979536,-1.439661 -0.305604,-0.152802 -1.011423,-0.651507 -1.259705,-0.89979 -0.09484,-0.09484 -0.07265,-0.279434 -0.179956,-0.359915 -0.151755,-0.113816 -0.38812,-0.06614 -0.539875,-0.179956 -0.107304,-0.08048 -0.08511,-0.265071 -0.179956,-0.359916 -0.189693,-0.189693 -0.53014,-0.170225 -0.719831,-0.359915 -0.09485,-0.09485 -0.07265,-0.279437 -0.179959,-0.359915 -0.151754,-0.113816 -0.38204,-0.07474 -0.539874,-0.179959 -0.211754,-0.141172 -0.341143,-0.380889 -0.539872,-0.539875 -0.10474,-0.08379 -0.26507,-0.08511 -0.359915,-0.179956 -0.04242,-0.04242 0.04241,-0.137541 0,-0.179959 -0.09485,-0.09484 -0.26507,-0.08511 -0.359916,-0.179957 -0.09485,-0.09485 -0.06835,-0.285511 -0.179959,-0.359915 -0.09982,-0.06655 -0.246099,0.03794 -0.359915,0 -0.205184,-0.0684 -0.366847,-0.230148 -0.539872,-0.359915 -0.239945,-0.179959 -0.507751,-0.327793 -0.719833,-0.539875 -0.09484,-0.09484 -0.07265,-0.279437 -0.179956,-0.359915 -0.331634,-0.248724 -0.943459,-0.223628 -1.259705,-0.539874 -0.09485,-0.09484 -0.08511,-0.265068 -0.179957,-0.359916 -0.219284,-0.219281 -0.680508,-0.32059 -0.899789,-0.539871 -0.09485,-0.09485 -0.08511,-0.26507 -0.179959,-0.359916 -0.101682,-0.101682 -0.585775,-0.225861 -0.719831,-0.359915 -0.09484,-0.09485 -0.07265,-0.279437 -0.179956,-0.359915 -0.0699,-0.05242 -1.009852,-0.487453 -1.079749,-0.539875 -0.220499,-0.165375 -1.348558,-1.12305 -1.439662,-1.259705 -0.0744,-0.111604 -0.06835,-0.285512 -0.179956,-0.359915 -0.09983,-0.06655 -0.260093,0.06655 -0.359915,0 -0.111607,-0.0744 -0.08511,-0.26507 -0.179959,-0.359915 -0.283734,-0.283734 -0.803654,-0.443738 -1.079746,-0.719831 -0.09484,-0.09485 -0.07265,-0.279437 -0.179959,-0.359916 -0.151752,-0.113815 -0.377214,-0.08236 -0.539872,-0.179958 -0.145489,-0.08729 -0.224184,-0.258115 -0.359915,-0.359916 -1.079749,-0.80981 0.71983,0.89979 -1.079749,-0.539872 -0.104738,-0.08379 -0.08511,-0.26507 -0.179956,-0.359915 -0.557173,-0.557175 -0.856689,-0.338368 -1.259705,-0.539874 -0.43243,-0.216216 -0.815026,-0.67745 -1.259705,-0.899789 -0.346613,-0.173307 -0.913752,-0.244598 -1.259703,-0.359916 -0.786074,-0.262024 0.126921,-0.129189 -0.89979,-0.539873 -0.313319,-0.125328 -1.053253,-0.231113 -1.439661,-0.359915 -0.109823,-0.03661 -0.430051,-0.323309 -0.539874,-0.359916 -0.425847,-0.141949 -1.020318,-0.04018 -1.439662,-0.179958 -0.08048,-0.02683 -0.104081,-0.142019 -0.179959,-0.179958 -0.191955,-0.09598 -0.527875,0.09598 -0.71983,0 -0.259821,-0.12991 -0.46001,-0.230005 -0.719831,-0.359915 -0.232079,-0.116039 -0.591399,0.06422 -1.079746,-0.179958 -0.236993,-0.118496 -0.647227,0.08419 -0.89979,0 -0.08048,-0.02683 -0.104079,-0.142019 -0.179956,-0.179958 -0.09955,-0.04978 -0.640305,-0.153449 -0.719831,-0.179958 -0.113816,-0.03794 -0.275085,0.08483 -0.359917,0 -0.04242,-0.04242 0.04242,-0.137541 0,-0.179957 -0.08483,-0.08483 -0.252609,0.05365 -0.359915,0 -0.04143,-0.02071 -0.773443,-0.282059 -0.539873,-0.359916 0.409862,-0.136621 1.00815,-0.07208 1.439661,-0.179957 0.260255,-0.06506 0.465334,-0.275083 0.719831,-0.359916 0.594482,-0.19816 1.389862,0.0166 1.979536,-0.179958 0.658683,-0.219561 1.316283,-0.318789 1.979536,-0.539873 0.208531,-0.06951 0.510468,0.05234 0.71983,0 0.130128,-0.03253 0.228389,-0.153652 0.359916,-0.179958 0.751128,-0.150225 1.798738,2.1e-4 2.51941,-0.179958 0.0823,-0.02057 0.09766,-0.159382 0.179956,-0.179957 0.282287,-0.07057 0.617503,0.07057 0.89979,0 0.130127,-0.03253 0.229788,-0.147426 0.359915,-0.179958 0.331513,-0.08288 0.75638,0.107788 1.079746,0 0.08048,-0.02683 0.09766,-0.159383 0.179959,-0.179958 0.379122,-0.09478 0.887733,0.12399 1.259703,0 0.08048,-0.02683 0.09766,-0.159383 0.179959,-0.179958 0.338743,-0.08469 0.741002,0.08469 1.079746,0 0.272306,-0.06808 0.627483,-0.291839 0.899789,-0.359915 0.282287,-0.07057 0.617501,0.07057 0.899787,0 0.13013,-0.03253 0.232667,-0.137542 0.359918,-0.179958 0.380003,-0.126668 4.019357,-0.09592 4.498944,0 0.260543,0.05211 0.639244,0.307807 0.899789,0.359916 0.117642,0.02353 0.2461,-0.03794 0.359916,0 0.08048,0.02683 0.09766,0.159382 0.179956,0.179957 0.174585,0.04365 0.365289,-0.04365 0.539874,0 0.0823,0.02057 0.09948,0.153132 0.179957,0.179958 0.290174,0.09672 0.609616,0.08323 0.899789,0.179958 0.16096,0.05365 0.208161,0.284039 0.359916,0.359915 1.005895,0.502948 0.07004,-0.07247 1.079746,0.179958 0.298569,0.07464 2.280893,1.125807 2.699366,1.439662 0.377489,0.283116 1.275411,1.324926 1.619621,1.439662 0.113815,0.03794 0.246099,-0.03794 0.359915,0 0.416325,0.138775 0.829837,0.7565 1.259705,0.899789 0.113816,0.03794 0.252608,-0.05365 0.359915,0 0.151755,0.07588 0.224182,0.258116 0.359916,0.359916 0.160419,0.120314 2.585304,1.056934 2.699366,1.079746 0.326123,0.06523 0.752655,-0.08177 1.079746,0 0.624242,0.156061 1.325626,0.2665 1.979536,0.359916 0.736039,0.105148 1.616332,-0.18078 2.339451,0 0.130127,0.03253 0.228388,0.153652 0.359915,0.179958 0.352928,0.07058 0.726821,-0.07059 1.079746,0 0.13153,0.02631 0.227132,0.160988 0.359916,0.179957 0.761325,0.108761 1.580983,-0.126411 2.339451,0 0.132307,0.02206 0.226605,0.165147 0.359915,0.179958 1.468133,0.163126 3.06079,2.65e-4 4.498946,0.359915 0.567029,0.141759 1.225746,-0.114765 1.799577,0 0.131527,0.0263 0.228388,0.153652 0.359915,0.179959 0.461431,0.09228 0.978234,-0.09229 1.439662,0 0.707525,0.141505 1.428443,0.418032 2.159494,0.539872 0.812396,0.135401 1.703189,0.04392 2.519408,0.179959 0.374224,0.06237 0.705524,0.297545 1.079748,0.359915 0.177509,0.02959 0.365287,-0.04364 0.539872,0 0.0823,0.02059 0.09766,0.159383 0.179959,0.179957 0.295564,0.07389 0.78113,-0.09954 1.079746,0 0.08048,0.02683 0.104082,0.14202 0.179957,0.179959 0.05365,0.02683 0.137541,-0.04242 0.179959,0 0.04242,0.04241 -0.05365,0.15313 0,0.179956 0.107307,0.05366 0.275082,-0.08483 0.359915,0 0.08483,0.08483 -0.08483,0.275085 0,0.359918 0.134133,0.134131 0.38812,0.06614 0.539874,0.179957 0.214612,0.160959 0.170223,0.53014 0.359916,0.71983 0.04242,0.04242 0.130045,-0.03327 0.179956,0 0.387543,0.258361 0.358299,0.447472 0.539874,0.719831 0.16637,0.249558 0.553461,0.290317 0.719831,0.539874 0.06655,0.09982 -0.05365,0.252609 0,0.359916 0.02683,0.05365 0.15313,-0.05365 0.179956,0 0.15095,0.301897 0.03117,0.782164 0.179959,1.079746 0.03794,0.07588 0.153131,0.09948 0.179959,0.179959 0.179552,0.538654 -0.10869,2.736786 -0.359918,3.239238 -0.127796,0.255598 -0.232116,0.10432 -0.359915,0.359915 -0.29265,0.585306 -0.04543,0.428064 -0.359915,0.89979 -0.347774,0.52166 -0.81805,0.818049 -1.259703,1.259705 -0.09485,0.09484 -0.08511,0.26507 -0.179959,0.359915 -0.200967,0.200967 -0.830453,0.700355 -1.079746,0.89979 -0.273129,0.218501 -0.689925,0.260051 -0.899789,0.539872 -0.113816,0.151754 -0.04583,0.405741 -0.179957,0.539874 -0.134133,0.134133 -0.377214,0.08236 -0.539874,0.179956 -0.107569,0.06454 -1.355807,1.1479 -1.439662,1.259705 -0.394136,0.525516 0.08983,0.247555 -0.539874,0.719831 -0.390303,0.292727 -0.919858,0.559946 -1.259705,0.89979 -0.271597,0.271597 -0.448233,0.628189 -0.719831,0.899787 -0.09484,0.09485 -0.265067,0.08511 -0.359915,0.179959 -0.483915,0.483915 -0.724411,0.847436 -1.079746,1.439661 -0.154313,0.257188 -0.565518,0.282686 -0.719831,0.539875 -0.09259,0.154313 0.06683,0.372787 0,0.539874 -0.06301,0.15753 -0.258117,0.224181 -0.359915,0.359915 -0.160959,0.214612 -0.211108,0.496621 -0.359915,0.719831 -0.09412,0.141168 -0.306264,0.198956 -0.359916,0.359915 -0.03794,0.113816 0.03794,0.2461 0,0.359916 -0.214614,0.643837 -0.959776,0.959773 -1.439664,1.439661 z"
       id="path17" /><path
       style="fill:#000000;fill-opacity:1;stroke:#000000;stroke-width:1.427;stroke-dasharray:none;stroke-opacity:1"
       d="m 76.302091,51.108006 c 0.342241,-2.017186 1.738456,-2.781525 2.699367,-4.318987 0.100539,-0.160858 0.09512,-0.370207 0.179959,-0.539874 0.419658,-0.839317 0.302797,-0.283755 0.899789,-1.079746 0.209865,-0.279821 0.312243,-0.63422 0.539872,-0.89979 0.393123,-0.458642 1.03959,-0.759611 1.439661,-1.259702 0.673325,-0.841656 1.323653,-1.822876 2.159495,-2.51941 0.162296,-0.472885 0.748893,-0.471689 1.079746,-0.719831 0.398209,-0.298656 0.57957,-0.759529 0.89979,-1.079746 0.239622,-0.239623 0.480208,-0.120293 0.719831,-0.359915 0.302585,-0.302588 0.333851,-0.610307 0.71983,-0.89979 0.50895,-0.381712 1.322692,-0.845804 1.619621,-1.439662 0.02683,-0.05365 -0.04242,-0.137541 0,-0.179959 0.249571,-0.24957 0.503819,0.269786 0.539871,0.359916 0.09186,0.22964 0.06935,0.498615 0.179959,0.719831 0.03794,0.07588 0.159383,0.09766 0.179959,0.179959 0.07274,0.290975 -0.09485,0.615251 0,0.899789 0.02683,0.08048 0.153131,0.09948 0.179957,0.179957 0.196429,0.589288 -0.150368,1.378058 0,1.979535 0.183965,0.735859 0.426521,1.366026 0.539874,2.159492 0.03393,0.237533 -0.07588,0.492202 0,0.719834 0.02683,0.08048 0.15313,0.09948 0.179956,0.179956 0.122024,0.366067 0.05474,0.884031 0.179959,1.259705 0.397574,1.192721 0.767948,2.351963 1.079746,3.599156 0.106207,0.424829 0.350841,1.061596 0.539875,1.439662 0.03794,0.07588 0.159382,0.09766 0.179956,0.179956 0.0582,0.23278 -0.07588,0.492202 0,0.719833 0.349872,1.049613 0.634442,2.177849 0.89979,3.239239 0.214773,0.859099 -0.03473,1.840618 0.179956,2.699366 0.04511,0.180435 0.112538,0.87748 0.179959,1.079746 0.02683,0.08048 0.159383,0.09766 0.179957,0.179959 0.192987,0.771943 -0.02453,4.081674 -0.179957,4.858859 -0.06188,0.309385 -0.226266,0.992404 -0.359915,1.259705 -0.03794,0.07588 -0.153133,0.09948 -0.179959,0.179959 -0.03794,0.113813 0.06655,0.26009 0,0.359915 -0.0744,0.111604 -0.290904,0.06494 -0.359915,0.179956 -0.127249,0.212082 -0.0881,0.490194 -0.179957,0.719831 -0.09187,0.229685 -0.393321,0.213363 -0.539874,0.359915 -0.235799,0.235802 -0.520234,0.830252 -0.719831,1.079749 -0.105989,0.132485 -0.239945,0.239943 -0.359915,0.359915 -0.179959,0.11997 -0.404762,0.191027 -0.539875,0.359916 -0.118498,0.148124 -0.08236,0.377214 -0.179956,0.539871 -0.277246,0.462077 -0.842423,0.621602 -1.259705,0.89979 -0.276857,0.184574 -0.442973,0.53526 -0.719831,0.719831 -0.64879,0.432527 -1.177054,0.97277 -1.799579,1.439661 -0.63345,0.475089 -1.52604,0.60466 -2.159492,1.079749 -0.650132,0.487598 -1.30416,0.989409 -1.979536,1.439661 -0.26878,0.179187 -0.64136,0.166095 -0.89979,0.359916 -0.107304,0.08048 -0.05998,0.299929 -0.179956,0.359915 -0.160959,0.08048 -0.372787,-0.06683 -0.539874,0 -0.427472,0.17099 -0.882888,0.797134 -1.259703,1.079746 -0.374496,0.280871 -0.514352,0.231436 -0.899789,0.359915 -0.241438,0.08048 -0.328118,0.398704 -0.539875,0.539875 -0.431141,0.287427 -1.098838,0.511519 -1.619617,0.719831 -0.12454,0.04981 -0.265071,0.08511 -0.359918,0.179959 -0.04242,0.04242 0.05691,0.160988 0,0.179956 -0.170723,0.05691 -0.372785,-0.06683 -0.539872,0 -1.195115,0.478046 0.377137,0.265631 -0.719831,0.539874 -0.478552,0.119637 -0.955958,0.166434 -1.439664,0.359916 -0.249076,0.09963 -0.459573,0.294851 -0.719831,0.359915 -0.627189,0.156797 -0.123428,-0.285859 -0.899787,0.179956 -0.145489,0.08729 -0.202385,0.296905 -0.359915,0.359916 -0.167087,0.06684 -0.363411,-0.03529 -0.539874,0 -0.333053,-0.133665 -0.33005,0.307461 -0.539875,0.359915 -0.174582,0.04365 -0.362362,-0.02958 -0.539871,0 -0.499917,0.08332 -0.961036,0.444148 -1.439662,0.539874 -0.427466,0.08549 -0.835792,0.09518 -1.259705,0.179959 -0.260546,0.05211 -0.639246,0.307806 -0.89979,0.359916 -1.257646,0.251528 -2.522143,0.405587 -3.779112,0.71983 -0.395941,0.09898 -0.858716,-0.0802 -1.259705,0 -0.661588,0.132318 -1.315008,0.249161 -1.979536,0.359916 -0.46382,0.0773 -0.978747,-0.09218 -1.439661,0 -0.131527,0.0263 -0.228389,0.153651 -0.359916,0.179956 -0.635423,0.127085 -1.339839,-0.106614 -1.979535,0 -0.44568,0.07428 -0.83861,0.254643 -1.259705,0.359915 -0.732812,0.183206 -1.592398,-0.124507 -2.339451,0 -0.187111,0.03119 -0.353865,0.142759 -0.539872,0.179959 -0.543174,0.108636 -4.212749,0.116539 -4.678902,0 -0.368057,-0.09201 -0.704176,-0.306263 -1.079746,-0.359915 -0.647952,-0.09256 -1.333164,-0.07223 -1.979536,-0.179959 -0.213141,-0.03552 -1.065276,-0.262699 -1.259705,-0.359915 -0.07588,-0.03794 -0.09766,-0.159383 -0.179957,-0.179957 -0.174585,-0.04364 -0.365289,0.04365 -0.539874,0 -0.0823,-0.02058 -0.09948,-0.153133 -0.179959,-0.179959 -0.113813,-0.03794 -0.243525,0.0291 -0.359915,0 -0.31377,-0.07844 -0.586018,-0.281471 -0.899787,-0.359915 -1.383271,-0.345816 -2.589438,-0.711851 -3.959072,-1.259705 -0.446796,-0.178718 -0.793321,-0.603234 -1.259705,-0.719831 -0.538774,-0.134691 -1.189609,-0.289819 -1.61962,-0.71983 -0.09484,-0.09485 -0.08511,-0.265071 -0.179957,-0.359916 -0.29954,-0.29954 -0.911748,-0.63882 -1.259705,-0.899789 -0.258426,-0.193818 -0.647541,-0.158118 -0.899789,-0.359916 -0.168887,-0.135109 -0.206981,-0.386937 -0.359916,-0.539872 -0.493408,-0.49341 -1.335944,-0.436157 -1.799576,-0.899789 -0.09485,-0.09485 -0.07265,-0.279435 -0.179957,-0.359916 -0.151754,-0.113815 -0.359918,-0.119972 -0.539874,-0.179956 -0.179959,-0.119973 -0.370986,-0.224806 -0.539874,-0.359918 -0.377262,-0.30181 -0.666618,-0.831868 -1.079747,-1.079746 -0.16266,-0.09759 -0.370207,-0.09512 -0.539873,-0.179956 -0.22763,-0.113816 -0.328117,-0.398704 -0.539873,-0.539875 -0.172426,-0.114951 -0.538545,-0.178628 -0.719831,-0.359915 -0.152935,-0.152934 -0.206981,-0.386937 -0.359915,-0.539874 -0.247329,-0.247328 -0.619969,-0.330007 -0.899789,-0.539872 -0.328023,-0.246018 -0.436543,-0.6165 -0.719831,-0.89979 -0.09485,-0.09484 -0.26507,-0.08511 -0.359916,-0.179956 -0.04242,-0.04242 0.04242,-0.137541 0,-0.179959 -0.372339,-0.372338 0.01456,0.568984 -0.359916,-0.179956 -0.153321,-0.306645 -0.325117,-0.757614 -0.539873,-1.079749 0.04687,-0.380206 -0.285512,-0.06835 -0.359915,-0.179957 -0.299503,-0.449254 -0.313508,-1.166889 -0.539873,-1.61962 -0.03794,-0.07588 -0.179958,-0.09513 -0.179958,-0.179956 0,-0.179959 0.36341,-0.03529 0.539873,0 0.601657,0.12033 1.115632,0.287877 1.61962,0.539871 0.222966,0.111483 1.32104,0.26039 1.61962,0.359916 0.08048,0.02683 0.09948,0.153133 0.179958,0.179959 0.849603,0.283199 1.98985,-0.148246 2.879323,0 1.029594,0.171598 2.008071,0.179956 3.059282,0.179956 1.123622,0 2.506805,0.218472 3.599156,0 0.131527,-0.0263 0.228388,-0.153651 0.359915,-0.179956 0.352925,-0.07059 0.726821,0.07059 1.079746,0 0.263057,-0.05261 0.456777,-0.307306 0.719831,-0.359916 0.461431,-0.09229 0.978234,0.09228 1.439664,0 0.935924,-0.187184 1.945857,-0.173222 2.879323,-0.359915 0.535554,-0.107111 1.092308,-0.408046 1.61962,-0.539874 0.516806,-0.129202 1.097087,-0.07545 1.619621,-0.179959 0.326176,-0.06523 0.626745,-0.471612 0.899787,-0.539872 0.560329,-0.140084 0.834509,-0.09351 1.439664,-0.179959 1.228656,-0.175522 -0.02686,-0.128254 0.899787,-0.359915 1.297771,-0.324443 2.870663,-0.716119 4.13903,-1.259705 0.198795,-0.0852 0.339059,-0.279588 0.539872,-0.359916 0.111392,-0.04456 0.243528,0.0291 0.359916,0 0.434403,-0.108598 1.019828,-0.399928 1.439664,-0.539871 0.36246,-0.120822 0.706207,-0.465167 1.079746,-0.539875 0.176463,-0.03529 0.372787,0.06684 0.539871,0 0.157533,-0.06301 0.208164,-0.284038 0.359918,-0.359915 0.107305,-0.05365 0.239943,0 0.359916,0 0.11997,-0.05999 0.244895,-0.110948 0.359915,-0.179956 0.252764,-0.15166 0.785828,-0.621859 1.079746,-0.719834 0.113816,-0.03794 0.243525,0.0291 0.359915,0 0.51475,-0.128685 1.530628,-0.600517 1.979536,-0.899787 0.325776,-0.217186 0.888794,-0.596193 1.259705,-0.719831 0.113813,-0.03794 0.252608,0.05365 0.359916,0 0.717068,-0.358534 7.93e-4,-0.360113 0.71983,-0.539874 0.650843,-0.162711 0.998106,-0.409075 1.619621,-0.719831 0.33933,-0.169666 0.776237,-0.132286 1.079746,-0.359915 0.107304,-0.08048 0.05999,-0.299929 0.179956,-0.359915 0.160959,-0.08048 0.369152,0.05691 0.539874,0 0.443246,-0.147749 0.841984,-0.690931 1.259705,-0.89979 0.169664,-0.08483 0.377214,-0.08236 0.539872,-0.179956 0.145489,-0.08729 0.202385,-0.296905 0.359915,-0.359916 0.167087,-0.06684 0.374468,0.07089 0.539875,0 0.148717,-0.06374 2.254274,-1.354486 2.339451,-1.439664 0.09485,-0.09485 0.08511,-0.265067 0.179956,-0.359915 0.212082,-0.212082 0.462645,-0.385562 0.719834,-0.539872 0.433207,-0.259926 0.535609,-0.06858 0.899787,-0.359915 0.503102,0.05429 0.495427,-0.675386 0.71983,-0.89979 0.09485,-0.09485 0.248312,-0.105555 0.359916,-0.179959 1.533152,-1.022101 0.487373,-1.215787 2.699366,-0.899787 z"
       id="path18" /></g></svg>
