<?xml version="1.0" encoding="UTF-8" standalone="no"?>
<!-- Created with Inkscape (http://www.inkscape.org/) -->

<svg
   width="100mm"
   height="100mm"
   viewBox="0 0 100 100"
   version="1.1"
   id="svg1"
   xmlns="http://www.w3.org/2000/svg"
   xmlns:svg="http://www.w3.org/2000/svg">
  <defs
     id="defs1" />
  <g
     id="layer1">
    <path
       style="display:inline;fill:#000000;fill-opacity:1;stroke-width:0.407669"
       d="m 9.4181409,90.030398 c -0.023042,-1.810252 0.056853,-3.624805 0,-5.433644 -0.063603,-2.023153 -0.3427694,-3.146345 -0.5518298,-5.22466 -0.4785615,-4.75752 -0.928244,-9.636919 -1.1036596,-14.420062 -0.061262,-1.670443 0.031296,-3.344159 0,-5.015674 C 7.7052495,56.871126 7.638668,53.806125 7.5787087,50.740958 7.461606,44.754176 7.2559773,38.76012 7.3947645,32.768128 7.4496945,30.396346 7.649936,28.03174 7.7626515,25.662593 7.9580299,21.556014 8.1021829,17.432842 8.3144813,13.332393 8.3995223,11.68976 8.6823683,10.15781 8.6823683,8.5257053 12.480376,8.8195963 16.279,9.2586471 20.086854,9.3616532 c 6.43417,0.1740514 12.880205,-0.1874298 19.314048,0 3.862514,0.1125165 7.724088,0.3301639 11.588427,0.4179734 8.515033,0.1934852 17.050681,0 25.56812,0 3.233066,0 6.518323,0.1747854 9.748996,0 1.238601,-0.06701 2.431732,-0.2089862 3.678865,-0.2089862 0.146809,0 2.200351,-0.2169066 2.207321,-0.2089872 0.04335,0.049253 -0.0072,0.1397959 0,0.2089872 0.115513,1.1155746 0.317251,2.2219876 0.367886,3.3437816 0.07222,1.600126 -0.02712,3.204754 0,4.806686 0.145071,8.570732 0.183944,17.130481 0.183944,25.705326 0,5.572445 -0.219343,11.149558 -0.367887,16.718912 -0.190975,7.160197 0,14.360364 0,21.525599 0,1.273973 0.04887,2.325141 0.183943,3.552768 0.04597,0.417819 -0.126918,1.239272 0,1.671892 0.0472,0.160883 0.391421,0.600219 0.183944,0.835944 -0.04335,0.04925 -0.122625,0 -0.183944,0 -0.490515,0 -0.981031,0 -1.471547,0 -2.63652,0 -5.274847,-0.11087 -7.909562,0 -1.842252,0.07752 -3.678059,0.29315 -5.518299,0.417973 -4.352478,0.295227 -8.703984,0.617606 -13.059974,0.835945 -7.16428,0.359104 -14.366322,0.255292 -21.521367,0.835947 -1.168434,0.09482 -2.325534,0.339819 -3.494923,0.417973 -2.686527,0.179545 -5.404957,0.06353 -8.093505,0.208986 -1.658146,0.0897 -3.309,0.313354 -4.966469,0.417974 -1.40192,0.08849 -2.831481,-0.132472 -4.230696,0 -1.60683,0.152129 -3.158573,0.208985 -4.782527,0.208985 -0.923815,0 -5.7549,0.202548 -6.254073,0 -0.64558,-0.261954 -1.226289,-0.696622 -1.8394341,-1.044934 z"
       id="path3" />
  </g>
</svg>
