<?xml version="1.0" encoding="UTF-8" standalone="no"?>
<!-- Created with Inkscape (http://www.inkscape.org/) -->

<svg
   width="100mm"
   height="100mm"
   viewBox="0 0 100 100"
   version="1.1"
   id="svg1"
   inkscape:export-filename="Pictures\website\ttt\torus.png"
   inkscape:export-xdpi="96"
   inkscape:export-ydpi="96"
   inkscape:version="1.4.2 (f4327f4, 2025-05-13)"
   sodipodi:docname="plane.svg"
   xml:space="preserve"
   xmlns:inkscape="http://www.inkscape.org/namespaces/inkscape"
   xmlns:sodipodi="http://sodipodi.sourceforge.net/DTD/sodipodi-0.dtd"
   xmlns="http://www.w3.org/2000/svg"
   xmlns:svg="http://www.w3.org/2000/svg"><sodipodi:namedview
     id="namedview1"
     pagecolor="#ffffff"
     bordercolor="#000000"
     borderopacity="0.25"
     inkscape:showpageshadow="2"
     inkscape:pageopacity="0.0"
     inkscape:pagecheckerboard="false"
     inkscape:deskcolor="#d1d1d1"
     inkscape:document-units="mm"
     showborder="true"
     labelstyle="default"
     inkscape:antialias-rendering="true"
     inkscape:zoom="2.0792508"
     inkscape:cx="155.34441"
     inkscape:cy="232.05473"
     inkscape:window-width="2560"
     inkscape:window-height="1369"
     inkscape:window-x="1912"
     inkscape:window-y="-8"
     inkscape:window-maximized="1"
     inkscape:current-layer="layer1"><inkscape:page
       x="0"
       y="0"
       width="100"
       height="100"
       id="page2"
       margin="0"
       bleed="0" /></sodipodi:namedview><defs
     id="defs1"><inkscape:path-effect
       effect="powerclip"
       message=""
       id="path-effect24"
       is_visible="true"
       lpeversion="1"
       inverse="true"
       flatten="false"
       hide_clip="false" /><clipPath
       clipPathUnits="userSpaceOnUse"
       id="clipPath23"><path
         style="display:none;fill:#000000;fill-opacity:0.527919;fill-rule:evenodd;stroke:none;stroke-width:1.427;stroke-dasharray:none;stroke-opacity:1"
         d="m 44.089653,41.480266 c 0.20995,0 0.420765,0.019 0.629852,0 0.123155,-0.01119 0.237206,-0.07464 0.359915,-0.08998 0.38391,-0.04799 0.785815,0.04799 1.169725,0 0.09412,-0.01177 0.176044,-0.07657 0.269939,-0.08998 0.207838,-0.02969 0.42201,0.02969 0.629851,0 0.235461,0.112178 0.352087,-0.153128 0.539875,-0.179954 0.404214,-0.05775 0.858829,0.08017 1.259702,0 0.06576,-0.01315 0.113805,-0.07896 0.179959,-0.08998 0.648533,-0.108088 1.414068,0 2.069513,0 0.68984,0 1.379677,0 2.069515,0 0.29034,0 0.706599,-0.07079 0.989769,0 0.04115,0.01029 0.05998,0.05999 0.08998,0.08998 0.08998,0.02999 0.176045,0.07657 0.269938,0.08998 0.32149,0.04593 0.671126,0.02625 0.989767,0.08998 0.08498,0.01699 1.028496,0.419145 1.079746,0.449895 0.07274,0.04364 0.101192,0.148452 0.179959,0.179956 0.08354,0.03342 0.182644,-0.02183 0.269936,0 0.180829,0.04521 0.650218,0.396698 0.80981,0.449895 0.08536,0.02845 0.181705,-0.01765 0.269936,0 0.299929,0.05999 0.08998,0.08998 0.269938,0.269939 0.178448,0.178448 0.519007,0.169523 0.719831,0.269935 0.07588,0.03794 0.104079,0.142018 0.179956,0.179957 0.532125,0.266062 -0.192447,-0.324292 0.359916,0.08998 0.334766,0.251074 0.0095,0.139724 0.449894,0.359916 0.08483,0.04242 0.188609,0.04118 0.269936,0.08998 0.836914,0.502148 -0.630605,-0.180335 0.449895,0.359916 0.181465,0.09073 0.292653,0.06203 0.449895,0.179959 0.135734,0.101798 0.214429,0.272621 0.359915,0.359915 0.08133,0.0488 0.194062,0.03307 0.269936,0.08998 0.714537,0.5359 -0.69946,-0.221726 0.269939,0.359918 0.08133,0.0488 0.194058,0.03307 0.269936,0.08998 0.08651,0.06489 0.103491,0.193471 0.179959,0.269938 0.114022,0.114022 0.650628,0.537583 0.71983,0.629851 0.03599,0.04799 0,0.119973 0,0.179957 0.05999,0.08998 0.103489,0.193471 0.179957,0.269938 0.04742,0.04742 0.132535,0.04256 0.179959,0.08998 0.104071,0.104071 0.124235,0.402841 0.08998,0.539871 -0.05548,0.221904 -0.475165,0.475163 -0.629854,0.629854 -0.04742,0.04742 -0.03175,0.146682 -0.08998,0.179956 -0.164698,0.09411 -0.379013,0.07942 -0.539872,0.179959 -0.09171,0.05731 -0.08998,0.20995 -0.179959,0.269936 -0.01892,0.01262 -0.988108,0.359204 -0.989767,0.359916 -0.258617,0.110834 -0.446817,0.29166 -0.71983,0.359915 -0.148371,0.03709 -0.313106,0.02159 -0.449895,0.08998 -0.05999,0.02999 -0.02999,0.149963 -0.08998,0.179957 -0.08048,0.04024 -0.181703,-0.01765 -0.269936,0 -0.15838,0.03168 -0.301437,0.116334 -0.449895,0.179959 -0.288393,0.123597 -0.720471,0.288316 -0.989764,0.449894 -0.07274,0.04364 -0.107217,0.136311 -0.179959,0.179957 -0.258535,0.15512 -0.55454,0.09487 -0.80981,0.179959 -0.237329,0.07911 -0.459428,0.307835 -0.719831,0.359915 -0.08823,0.01765 -0.186396,-0.03342 -0.269938,0 -0.07877,0.03151 -0.09948,0.15313 -0.179959,0.179956 -0.113816,0.03794 -0.242798,-0.02604 -0.359913,0 -1.425038,0.570016 0.0531,0.04337 -0.629854,0.179959 -0.258249,0.05165 -0.460023,0.226635 -0.719828,0.269934 -0.34934,0.05823 -0.728538,0.03981 -1.079751,0.08998 -0.244843,0.03498 -0.474409,0.14928 -0.719831,0.179956 -0.238088,0.02976 -0.481351,-0.0265 -0.719828,0 -0.393049,0.04368 -0.779809,0.136634 -1.169728,0.179959 -0.879708,0.09775 -1.811761,0 -2.699364,0 -0.810826,0 -1.8161,0.113327 -2.609387,0 -0.340606,-0.04866 -0.635897,-0.230616 -0.989769,-0.269938 -0.354735,-0.03941 -0.727329,-0.03124 -1.079749,-0.08998 -0.184399,0.0385 -0.290571,-0.153405 -0.449892,-0.179959 -0.407607,-0.06793 -0.854607,-0.07868 -1.259705,-0.179956 -0.171405,-0.04285 -0.747096,-0.28357 -0.899787,-0.359916 -0.03794,-0.01897 -0.04883,-0.07969 -0.08998,-0.08998 -0.08729,-0.02183 -0.184573,0.02845 -0.269938,0 -0.405186,-0.135062 -0.142738,-0.175623 -0.449895,-0.359915 -0.162658,-0.0976 -0.377211,-0.08236 -0.539872,-0.179959 -0.07274,-0.04365 -0.107212,-0.136311 -0.179956,-0.179957 -0.302443,-0.181464 -0.207108,0.0021 -0.449895,-0.179959 -0.214614,-0.160959 -0.40771,-0.301797 -0.629851,-0.449892 -0.102897,-0.0686 -0.249309,-0.03468 -0.359918,-0.08998 -0.248267,-0.124135 -0.397563,-0.474991 -0.629854,-0.629854 -0.02495,-0.01664 -0.07334,0.02495 -0.08998,0 -0.05261,-0.07892 -0.03737,-0.191019 -0.08998,-0.269936 -0.1934,-0.2901 -0.339201,-0.249222 -0.539875,-0.449895 -0.172524,-0.172524 -0.22371,-0.515522 -0.359915,-0.719831 -0.178535,-0.267803 -0.486471,-0.520118 -0.359915,-0.899789 0.184303,-0.552911 0.748059,-0.853475 1.169725,-1.169723 0.376174,-0.282133 0.627608,-0.706017 1.079746,-0.89979 0.113665,-0.04872 0.249307,-0.03468 0.359916,-0.08998 0.07588,-0.03794 0.119972,-0.119972 0.179959,-0.179956 0.08998,-0.05999 0.17054,-0.137361 0.269936,-0.179959 0.887703,-0.221924 -0.03313,0.07387 0.539874,-0.269936 0.162658,-0.0976 0.377214,-0.08236 0.539872,-0.179959 0.07274,-0.04365 0.113715,-0.126963 0.179959,-0.179956 0.276555,-0.221247 0.47236,-0.262424 0.80981,-0.449895 0.189063,-0.105037 0.346424,-0.263192 0.539872,-0.359915 0.285464,-0.142732 0.636254,-0.162264 0.899789,-0.359916 0.221454,-0.166092 0.664448,-0.572405 0.989767,-0.539874 0.21727,0.02172 0.419902,0.119973 0.629854,0.179959 z"
         id="path24"
         clip-path="none"
         mask="none" /><path
         id="lpe_path-effect24"
         style="fill:#000000;fill-opacity:0.527919;fill-rule:evenodd;stroke:none;stroke-width:1.427;stroke-dasharray:none;stroke-opacity:1"
         class="powerclip"
         d="M 0.63050556,8.5382401 H 99.24361 V 89.982656 H 0.63050556 Z M 44.089653,41.480266 l -10e-7,7e-6 c -0.209952,-0.05999 -0.412584,-0.158239 -0.629854,-0.179959 -0.325319,-0.03253 -0.768313,0.373782 -0.989767,0.539874 -0.263535,0.197652 -0.614325,0.217184 -0.899789,0.359916 -0.193448,0.09672 -0.350809,0.254878 -0.539872,0.359915 -0.33745,0.187471 -0.533255,0.228648 -0.80981,0.449895 -0.06624,0.05299 -0.107219,0.136306 -0.179959,0.179956 -0.162658,0.0976 -0.377214,0.08236 -0.539872,0.179959 -0.573004,0.343806 0.347829,0.04801 -0.539874,0.269936 -0.0994,0.0426 -0.179956,0.119969 -0.269936,0.179959 -0.05999,0.05998 -0.104079,0.142016 -0.179959,0.179956 -0.110609,0.0553 -0.246251,0.04126 -0.359916,0.08998 -0.452138,0.193773 -0.703572,0.617657 -1.079746,0.89979 -0.421666,0.316248 -0.985422,0.616812 -1.169725,1.169723 -0.126556,0.379671 0.18138,0.631986 0.359915,0.899789 0.136205,0.204309 0.187391,0.547307 0.359915,0.719831 0.200674,0.200673 0.346475,0.159795 0.539875,0.449895 0.05261,0.07892 0.03737,0.191016 0.08998,0.269936 0.01664,0.02495 0.06503,-0.01664 0.08998,0 0.232291,0.154863 0.381587,0.505719 0.629854,0.629854 0.110609,0.0553 0.257021,0.02138 0.359918,0.08998 0.222141,0.148095 0.415237,0.288933 0.629851,0.449892 0.242787,0.182059 0.147452,-0.0015 0.449895,0.179959 0.07274,0.04365 0.107216,0.136307 0.179956,0.179957 0.162661,0.0976 0.377214,0.08236 0.539872,0.179959 0.307157,0.184292 0.04471,0.224853 0.449895,0.359915 0.08537,0.02845 0.182648,-0.02183 0.269938,0 0.04115,0.01029 0.05204,0.07101 0.08998,0.08998 0.152691,0.07635 0.728382,0.317066 0.899787,0.359916 0.405098,0.101276 0.852098,0.112026 1.259705,0.179956 0.159321,0.02655 0.265493,0.218459 0.449892,0.179959 0.35242,0.05874 0.725014,0.05057 1.079749,0.08998 0.353872,0.03932 0.649163,0.221278 0.989769,0.269938 0.793287,0.113327 1.798561,0 2.609387,0 0.887603,0 1.819656,0.09775 2.699364,0 0.389919,-0.04333 0.776679,-0.136279 1.169728,-0.179959 0.238477,-0.0265 0.48174,0.02976 0.719828,0 0.245422,-0.03068 0.474988,-0.144976 0.719831,-0.179956 0.351213,-0.05017 0.730411,-0.03175 1.079751,-0.08998 0.259805,-0.0433 0.461579,-0.218284 0.719828,-0.269934 0.682954,-0.136589 -0.795184,0.390057 0.629854,-0.179959 0.117115,-0.02604 0.246097,0.03794 0.359913,0 0.08048,-0.02683 0.101189,-0.148446 0.179959,-0.179956 0.08354,-0.03342 0.181708,0.01765 0.269938,0 0.260403,-0.05208 0.482502,-0.280805 0.719831,-0.359915 0.25527,-0.08509 0.551275,-0.02484 0.80981,-0.179959 0.07274,-0.04365 0.107219,-0.136317 0.179959,-0.179957 0.269293,-0.161578 0.701371,-0.326297 0.989764,-0.449894 0.148458,-0.06363 0.291515,-0.148279 0.449895,-0.179959 0.08823,-0.01765 0.189456,0.04024 0.269936,0 0.05999,-0.02999 0.02999,-0.149967 0.08998,-0.179957 0.136789,-0.06839 0.301524,-0.05289 0.449895,-0.08998 0.273013,-0.06826 0.461213,-0.249081 0.71983,-0.359915 0.0017,-7.12e-4 0.970847,-0.347296 0.989767,-0.359916 0.08998,-0.05999 0.08825,-0.212626 0.179959,-0.269936 0.160859,-0.100539 0.375174,-0.08585 0.539872,-0.179959 0.05823,-0.03327 0.04256,-0.132536 0.08998,-0.179956 0.154689,-0.154691 0.574374,-0.40795 0.629854,-0.629854 0.03425,-0.13703 0.01409,-0.4358 -0.08998,-0.539871 -0.04742,-0.04742 -0.132539,-0.04256 -0.179959,-0.08998 -0.07647,-0.07647 -0.119967,-0.179958 -0.179957,-0.269938 0,-0.05998 0.03599,-0.131967 0,-0.179957 -0.0692,-0.09227 -0.605808,-0.515829 -0.71983,-0.629851 -0.07647,-0.07647 -0.09345,-0.205048 -0.179959,-0.269938 -0.07588,-0.05691 -0.188606,-0.04118 -0.269936,-0.08998 -0.969399,-0.581644 0.444598,0.175982 -0.269939,-0.359918 -0.07587,-0.05691 -0.188606,-0.04118 -0.269936,-0.08998 -0.145486,-0.08729 -0.224181,-0.258117 -0.359915,-0.359915 -0.157242,-0.117929 -0.26843,-0.08923 -0.449895,-0.179959 -1.0805,-0.540251 0.387019,0.142232 -0.449895,-0.359916 -0.08133,-0.0488 -0.185106,-0.04756 -0.269936,-0.08998 -0.440394,-0.220192 -0.115128,-0.108842 -0.449894,-0.359916 -0.552363,-0.414272 0.172209,0.176082 -0.359916,-0.08998 -0.07588,-0.03794 -0.104076,-0.142017 -0.179956,-0.179957 -0.200824,-0.100412 -0.541383,-0.09149 -0.719831,-0.269935 -0.179958,-0.179959 0.02999,-0.209949 -0.269938,-0.269939 -0.08823,-0.01765 -0.184576,0.02845 -0.269936,0 -0.159592,-0.0532 -0.628981,-0.404685 -0.80981,-0.449895 -0.08729,-0.02183 -0.186396,0.03342 -0.269936,0 -0.07877,-0.0315 -0.107219,-0.136316 -0.179959,-0.179956 -0.05125,-0.03075 -0.994766,-0.432905 -1.079746,-0.449895 -0.318641,-0.06373 -0.668277,-0.04405 -0.989767,-0.08998 -0.09389,-0.01341 -0.179958,-0.05999 -0.269938,-0.08998 -0.03,-0.02999 -0.04883,-0.07969 -0.08998,-0.08998 -0.28317,-0.07079 -0.699429,0 -0.989769,0 -0.689838,0 -1.379675,0 -2.069515,0 -0.655445,0 -1.42098,-0.108088 -2.069513,0 -0.06615,0.01102 -0.114199,0.07683 -0.179959,0.08998 -0.400873,0.08017 -0.855488,-0.05775 -1.259702,0 -0.187788,0.02683 -0.304414,0.292132 -0.539875,0.179954 -0.207841,0.02969 -0.422013,-0.02969 -0.629851,0 -0.09389,0.01341 -0.175819,0.07821 -0.269939,0.08998 -0.38391,0.04799 -0.785815,-0.04799 -1.169725,0 -0.122709,0.01534 -0.23676,0.07879 -0.359915,0.08998 -0.209087,0.019 -0.419902,0 -0.629852,0 z" /></clipPath></defs><g
     inkscape:label="Layer 1"
     inkscape:groupmode="layer"
     id="layer1"><path
       style="display:inline;fill:#000000;fill-opacity:1;fill-rule:evenodd;stroke:#000000;stroke-width:1.427;stroke-dasharray:none;stroke-opacity:1"
       d="m 33.292187,16.736072 c 0.222695,-0.309292 0.557639,0.01089 0.809811,-0.08998 0.07876,-0.03151 0.09839,-0.156652 0.179956,-0.179957 0.144195,-0.0412 0.300675,0.01492 0.449895,0 0.70625,-0.07062 1.362744,-0.390997 2.069515,-0.449895 0.564666,-0.04706 0.522184,0.07729 1.079746,-0.08998 0.128477,-0.03854 0.229788,-0.147426 0.359916,-0.179958 0.11639,-0.0291 0.240678,0.01325 0.359915,0 0.281898,5.03e-4 0.535424,-0.145659 0.80981,-0.179957 0.353931,-0.04424 0.728636,-0.03146 1.079746,-0.08998 0.260985,-0.0435 0.123666,-0.125586 0.449895,-0.179958 0.147923,-0.02465 0.302842,0.02941 0.449895,0 0.332044,-0.06641 0.651351,-0.123555 0.989766,-0.179958 0.145913,-0.02432 0.303983,0.02432 0.449895,0 0.896432,-0.149405 -0.485963,-0.04048 0.629852,-0.179958 0.458657,-0.05733 0.89368,-0.122957 1.349684,-0.179957 0.286279,0.187598 0.413695,-0.149078 0.629851,-0.179958 0.237533,-0.03393 0.483153,0.03945 0.719831,0 0.358622,-0.05977 0.720315,-0.12861 1.079749,-0.179958 0.292674,-0.04181 0.608174,0.0486 0.899787,0 0.09356,-0.01559 0.176046,-0.07657 0.269938,-0.08998 1.091721,-0.15596 2.339576,0.08181 3.419197,0.179958 0.298697,0.02715 0.602176,-0.0372 0.899788,0 0.426323,0.05329 0.836424,0.222905 1.259705,0.269937 0.178858,0.01987 0.360656,-0.01629 0.539874,0 0.36462,0.03315 0.719286,0.1349 1.079746,0.179957 0.596331,0.07454 1.20115,0.113466 1.799577,0.179958 0.296283,0.03292 0.602602,-0.02477 0.899789,0 0.910482,0.07587 1.812052,0.122051 2.699367,0.269937 0.177509,0.02959 0.36341,-0.03529 0.539874,0 0.06576,0.01315 0.114194,0.07683 0.179957,0.08998 0.230716,0.04614 0.489116,-0.04614 0.71983,0 0.06576,0.01315 0.113806,0.07895 0.179959,0.08998 0.118341,0.01972 0.24115,-0.01697 0.359916,0 0.392282,0.05604 0.772348,0.220264 1.169725,0.269936 0.119044,0.01488 0.241149,-0.01697 0.359916,0 0.428688,0.06124 0.8432,0.267359 1.259705,0.359916 0.117115,0.02602 0.241575,-0.01972 0.359915,0 0.132308,0.02205 0.228388,0.153652 0.359915,0.179958 0.08823,0.01765 0.184576,-0.02845 0.269936,0 0.102592,0.0342 0.17054,0.137359 0.269936,0.179957 0.113668,0.04871 0.244126,0.04656 0.359915,0.08998 0.237088,0.08891 0.496999,0.270782 0.719834,0.359916 0.401301,0.16052 0.854369,0.197781 1.259702,0.359915 0.566203,0.226481 1.245958,0.581426 1.79958,0.719831 0.11753,0.02938 0.380777,0.228468 0.449895,0.269937 0.212664,0.127599 0.386836,0.14843 0.629851,0.269937 0.440385,0.220193 0.115128,0.108841 0.449895,0.359915 0.242784,0.18209 0.147452,-0.0015 0.449894,0.179958 0.836912,0.502148 -0.630607,-0.180335 0.449893,0.359915 0.181467,0.09073 0.292653,0.06203 0.449894,0.179958 0.500907,0.375679 0.995392,0.669218 1.529639,0.989768 0.261075,0.156643 0.474403,0.376252 0.719833,0.539873 0.223211,0.148807 0.513744,0.188177 0.719833,0.359916 0.08307,0.06923 0.10349,0.193469 0.179957,0.269936 0.223835,0.223834 0.565174,0.266418 0.80981,0.449895 0.215985,0.16199 0.531421,0.351464 0.719831,0.539873 0.04742,0.04742 0.04256,0.132535 0.08998,0.179958 0.424746,0.424748 0.10078,-0.02279 0.539872,0.269937 0.957318,0.63821 -0.516975,-0.115458 0.629854,0.539873 0.08235,0.04706 0.185102,0.04756 0.269938,0.08998 0.212442,0.106222 0.439074,0.306811 0.629854,0.449894 0.138541,0.103909 0.221366,0.256007 0.359913,0.359916 0.107304,0.08048 0.252608,0.09948 0.359915,0.179958 0.26874,0.201552 0.451096,0.518278 0.719831,0.71983 0.145693,0.109271 0.178199,0.04235 0.269936,0.179958 0.167928,0.25189 -0.008,0.137524 0.269938,0.359916 0.168886,0.13511 0.38694,0.206981 0.539872,0.359915 0.106042,0.106042 0.163896,0.253876 0.269936,0.359915 0.04742,0.04742 0.124158,0.05278 0.179959,0.08998 0.119721,0.07981 0.185576,0.275555 0.269936,0.359915 0.04742,0.04742 0.132535,0.04256 0.179959,0.08998 0.29623,0.296227 0.532757,0.678079 0.80981,0.989766 0.253619,0.285324 0.56542,0.516544 0.809807,0.80981 0.138462,0.166153 0.206981,0.38694 0.359918,0.539872 0.07647,0.07647 0.193469,0.103492 0.269936,0.179959 0.344091,0.344088 0.544735,0.772112 0.809813,1.169723 0.189995,0.285001 0.552463,0.516927 0.719828,0.80981 0.06135,0.107373 0.03467,0.249309 0.08998,0.359918 0.07588,0.151755 0.253928,0.227428 0.359915,0.359916 0.343821,0.429778 0.04818,0.09637 0.269936,0.539874 0.189976,0.379952 0.486989,0.73048 0.719833,1.079746 0.25427,0.381407 -0.07645,-0.0494 0.08998,0.449892 -0.0089,0.240951 0.288589,0.271584 0.359915,0.449895 0.03342,0.08354 -0.02845,0.184576 0,0.269939 0.06363,0.190875 0.195212,0.353062 0.269936,0.539871 0.197781,0.494451 0.568952,1.047922 0.80981,1.529641 0.16796,0.335923 0.191955,0.743829 0.359916,1.079746 0.01897,0.03794 0.07969,0.04883 0.08998,0.08998 0.02183,0.08729 -0.04024,0.189457 0,0.269938 0.02999,0.05999 0.149966,0.02999 0.179959,0.08998 0.04024,0.08048 -0.01765,0.181705 0,0.269936 0.0263,0.131527 0.153652,0.228388 0.179956,0.359915 0.01765,0.08823 -0.01765,0.181705 0,0.269938 0.04438,0.221891 0.230667,0.394227 0.269936,0.629852 0.141171,0.847024 -0.215841,-0.440526 0.08998,0.629851 0.07081,0.247825 0.130855,0.474308 0.179959,0.719831 -0.188952,0.253119 0.153651,0.228388 0.179956,0.359915 0.02352,0.117644 -0.01971,0.241578 0,0.359918 0.02655,0.159319 0.153406,0.290573 0.179959,0.449892 0.02466,0.147926 -0.03637,0.304409 0,0.449895 0.08615,0.344601 0.199549,0.727808 0.269936,1.079746 0.275741,0.306843 0.025,0.664919 0.08998,0.989769 0.01315,0.06577 0.07682,0.114194 0.08998,0.179957 0.09231,0.461563 -0.06668,0.972941 0,1.439664 0.01749,0.12242 0.07464,0.237204 0.08998,0.359915 0.07223,0.577794 -0.137022,1.341477 0,1.889556 0.01627,0.06506 0.07895,0.113803 0.08998,0.179957 0.05317,0.319013 -0.0634,0.67274 0,0.989769 0.234696,1.173475 0.110061,3.068931 -0.179957,4.229007 -0.02117,0.08469 0.02117,0.185251 0,0.269936 -0.08196,0.327832 -0.303778,0.652939 -0.359915,0.989769 -0.140997,0.845974 -0.413187,1.701687 -0.719833,2.519408 -0.04709,0.125592 -0.137541,0.232666 -0.179957,0.359915 -0.04836,0.145087 -0.03628,0.306697 -0.08998,0.449895 -0.03797,0.101256 -0.131596,0.173212 -0.179957,0.269936 -0.202861,0.40572 -0.337013,0.853985 -0.539874,1.259705 -0.07821,0.156424 -0.198908,0.290081 -0.269936,0.449895 -0.362384,0.815361 0.26057,-0.145103 -0.269938,0.80981 -0.07283,0.131093 -0.20287,0.225782 -0.269936,0.359915 -0.0553,0.110609 -0.03881,0.247336 -0.08998,0.359916 -0.248023,0.545645 -0.633296,1.144325 -0.989769,1.61962 -0.240109,0.320146 -0.536932,0.62397 -0.719831,0.989767 -0.04242,0.08483 -0.04118,0.188608 -0.08998,0.269936 -0.178737,0.297894 -0.517261,0.539715 -0.719831,0.80981 -0.05691,0.07588 -0.03073,0.195876 -0.08998,0.269938 -0.119973,0.149963 -0.329922,0.20995 -0.449895,0.359916 -0.336635,0.42079 -0.611129,0.971044 -0.989767,1.349682 -0.106042,0.106042 -0.262321,0.156075 -0.359915,0.269938 -0.08729,0.101841 -0.09761,0.254037 -0.179959,0.359915 -0.373245,0.479886 -0.399907,0.335921 -0.719831,0.719831 -0.06923,0.08308 -0.103489,0.193469 -0.179956,0.269936 -0.307197,0.307192 -0.384993,0.197067 -0.629854,0.539874 -0.237911,0.333076 -0.42055,0.690486 -0.719831,0.989767 -0.106042,0.106042 -0.262318,0.156075 -0.359915,0.269936 -0.08729,0.10184 -0.09267,0.258074 -0.179959,0.359915 -0.09759,0.113864 -0.253873,0.163896 -0.359915,0.269939 -0.07647,0.07647 -0.108747,0.188552 -0.179957,0.269935 -0.276098,0.31554 -0.630759,0.576951 -0.899789,0.89979 -0.06923,0.08308 -0.103492,0.193469 -0.179957,0.269936 -0.07647,0.07647 -0.200707,0.09688 -0.269938,0.179959 -0.08587,0.103042 -0.08511,0.265068 -0.179957,0.359915 -0.09485,0.09485 -0.256873,0.09409 -0.359915,0.179957 -0.198297,0.165245 -0.461441,0.603099 -0.719831,0.80981 -0.368141,0.294513 -0.797586,0.512096 -1.169725,0.80981 -0.278972,0.223176 -0.08063,0.175284 -0.449895,0.359915 -0.637715,0.318858 -1.380583,0.590466 -1.979536,0.989767 -0.07059,0.04706 -0.107214,0.136313 -0.179959,0.179959 -0.162658,0.0976 -0.365519,0.105235 -0.539874,0.179959 -0.322906,0.138388 -0.684276,0.275328 -0.989767,0.449892 -0.09389,0.05365 -0.168682,0.141989 -0.269936,0.179959 -0.1432,0.0537 -0.306697,0.03628 -0.449897,0.08998 -0.101256,0.03797 -0.17321,0.131596 -0.269933,0.179956 -0.169667,0.08483 -0.365522,0.105235 -0.539875,0.179959 -0.373851,0.160221 -0.711763,0.376325 -1.079746,0.539872 -0.113006,0.05023 -0.24625,0.04127 -0.359915,0.08998 -0.0994,0.0426 -0.17149,0.13521 -0.269936,0.179959 -1.176052,0.534567 -0.289671,0.04372 -1.169728,0.449893 -0.243573,0.112418 -0.469445,0.263614 -0.719828,0.359918 -0.142743,0.0549 -0.303411,0.04603 -0.449895,0.08998 -0.569468,0.170839 -1.0511,0.544904 -1.619623,0.719831 -0.174371,0.05366 -0.365498,0.03633 -0.539872,0.08998 -0.802656,0.24697 -1.553723,0.704048 -2.339451,0.989769 -0.143727,0.05226 -0.304808,0.04162 -0.449892,0.08998 -0.528029,0.176011 -0.176774,0.202054 -0.719836,0.269938 -0.53562,0.06695 -0.213241,-0.108879 -0.809805,0.08998 -0.353785,0.11793 -0.699045,0.312327 -1.079749,0.359918 -0.148807,0.0186 -0.301088,-0.0186 -0.449895,0 -0.216664,0.02708 -0.413694,0.149076 -0.629851,0.179956 -0.361939,0.0517 -0.719378,0.128476 -1.079746,0.179959 -0.205753,0.02939 -0.424103,-0.0294 -0.629851,0 -0.930587,0.13294 0.283604,0.05846 -0.80981,0.179956 -0.735338,0.0817 -1.520579,-0.12148 -2.249475,0 -0.06615,0.01103 -0.113802,0.07895 -0.179956,0.08998 -0.588185,0.09803 -1.295765,0 -1.889556,0 -1.109742,0 -2.219479,0 -3.329223,0 -1.799574,0 -3.599151,0 -5.398733,0 -0.796544,0 -1.637557,0.07919 -2.429428,0 -0.30435,-0.03044 -0.595434,-0.149524 -0.899787,-0.179959 -0.424487,-0.04245 -0.831734,-0.13716 -1.259705,-0.179954 -0.119375,-0.01193 -0.243528,0.0291 -0.359916,0 -0.130127,-0.03253 -0.229788,-0.147426 -0.359915,-0.179959 -0.11639,-0.0291 -0.240869,0.0149 -0.359915,0 -0.449853,-0.05623 -1.842979,-0.387437 -2.249472,-0.539874 -0.306774,-0.115038 -0.690745,-0.231762 -0.989769,-0.359913 -0.0994,-0.0426 -0.16868,-0.141991 -0.269936,-0.179959 -0.258913,-0.09709 -0.550894,-0.08286 -0.80981,-0.179956 -0.239943,-0.08998 -0.479886,-0.179959 -0.719831,-0.269939 -0.397925,-0.149222 -0.7718,-0.390649 -1.169728,-0.539874 -0.687324,-0.257747 -0.02212,0.123907 -0.809808,-0.269936 -0.09672,-0.04836 -0.170537,-0.137358 -0.269938,-0.179956 -0.08399,-0.036 -0.524791,-0.109919 -0.629849,-0.179959 -0.105878,-0.07058 -0.166391,-0.195977 -0.269938,-0.269936 -0.397,-0.283573 -0.916795,-0.343109 -1.349682,-0.539877 -0.562957,-0.255887 -1.107848,-0.648581 -1.619621,-0.989764 -1.00984,-0.673227 0.04777,0.06465 -0.80981,-0.449895 -0.447521,-0.268512 -0.828091,-0.612045 -1.259705,-0.89979 -0.410229,-0.273486 -0.865682,-0.514294 -1.259704,-0.809807 -0.1018,-0.07635 -0.168137,-0.193588 -0.269937,-0.269939 -0.13991,-0.104931 -0.311846,-0.162565 -0.449894,-0.269938 -0.133926,-0.104161 -0.218745,-0.265801 -0.359916,-0.359913 -0.13439,-0.08959 -0.312928,-0.09435 -0.449894,-0.179959 -0.107907,-0.06744 -0.16639,-0.195974 -0.269937,-0.269936 -0.616049,-0.440036 -0.11979,0.06513 -0.629852,-0.359915 -0.195511,-0.162925 -0.332779,-0.391951 -0.539873,-0.539877 -0.109148,-0.07796 -0.250767,-0.101992 -0.359916,-0.179954 -0.572809,-0.409149 0.06383,-0.154493 -0.629852,-0.539874 -0.141191,-0.07844 -0.311394,-0.09686 -0.449894,-0.179959 -0.313938,-0.18836 -0.606901,-0.410184 -0.899789,-0.629851 -0.101799,-0.07635 -0.162029,-0.202494 -0.269937,-0.269934 -0.136966,-0.0856 -0.308703,-0.10152 -0.449894,-0.179959 -0.354139,-0.196744 -0.624352,-0.537125 -0.989768,-0.719833 -0.08483,-0.04242 -0.197074,-0.02926 -0.269936,-0.08998 -0.115207,-0.09601 -0.163896,-0.253873 -0.269937,-0.359913 -0.307708,-0.30771 -0.771152,-0.462669 -1.079747,-0.719833 -0.08308,-0.06923 -0.10349,-0.193469 -0.179957,-0.269936 -0.182441,-0.182441 -0.435681,-0.279993 -0.629853,-0.449895 -0.126043,-0.110286 -0.672721,-0.582742 -0.80981,-0.719833 -0.467671,-0.46767 0.0853,-0.09372 -0.359915,-0.449895 -0.259818,-0.207854 -0.256779,-0.11852 -0.449894,-0.359913 -0.135111,-0.168889 -0.263192,-0.346424 -0.359916,-0.539874 -0.04242,-0.08483 -0.03073,-0.195874 -0.08998,-0.269936 -0.06755,-0.08444 -0.209951,-0.08998 -0.269937,-0.179956 -0.0686,-0.102897 -0.02138,-0.257022 -0.08998,-0.359916 -0.05999,-0.08998 -0.200707,-0.09688 -0.269937,-0.179959 -0.171739,-0.206086 -0.20399,-0.501533 -0.359916,-0.719833 -0.07396,-0.103545 -0.199351,-0.164055 -0.269936,-0.269933 -0.111605,-0.16741 -0.163302,-0.369258 -0.269937,-0.539875 -0.04496,-0.07194 -0.136311,-0.107214 -0.179958,-0.179956 -0.359846,-0.599747 0.354455,0.113599 -0.359915,-0.719833 -0.07038,-0.0821 -0.207081,-0.09196 -0.269937,-0.179957 C 10.52363,64.383428 10.51599,64.206157 10.43755,64.064965 10.36472,63.933872 10.257592,63.825022 10.167614,63.705049 10.017649,63.375127 9.8882634,63.035053 9.7177193,62.715283 9.6471478,62.582959 9.5206119,62.486458 9.4477827,62.355368 9.0950611,61.473562 9.4734314,62.306425 8.9978881,61.545557 8.6436938,60.978846 8.3316977,60.278928 8.0980992,59.656001 8.0546779,59.540209 8.0568342,59.409751 8.0081207,59.296083 7.9655218,59.196687 7.8661337,59.127403 7.8281628,59.026147 7.774464,58.882949 7.7918829,58.71945 7.7381841,58.576252 7.7002132,58.474996 7.596197,58.407573 7.5582259,58.306316 7.4301144,57.964686 7.5165633,57.819195 7.3782685,57.496506 7.3356695,57.39711 7.2245387,57.331483 7.1983108,57.22657 c -0.036372,-0.145486 0.036372,-0.304408 0,-0.449894 -0.026228,-0.104913 -0.1419871,-0.16868 -0.179958,-0.269936 -0.097601,-0.260268 -0.3238007,-1.150745 -0.3599153,-1.439664 -0.029761,-0.238091 0.065917,-0.48912 0,-0.719831 -0.036849,-0.128971 -0.1508604,-0.228976 -0.179958,-0.359915 -0.032532,-0.146394 0.0186,-0.301088 0,-0.449895 -0.011763,-0.09411 -0.080541,-0.175562 -0.089979,-0.269936 -0.096229,-0.962282 0,-2.001266 0,-2.969302 0,-0.672177 -0.083266,-1.403393 0,-2.069516 0.048852,-0.390813 0.1361358,-0.775329 0.1799574,-1.169725 0.013248,-0.119237 0,-0.239943 0,-0.359916 0.029993,-0.269936 0.04868,-0.541369 0.089979,-0.80981 0.087846,-0.570997 0.3022094,-1.132541 0.3599153,-1.709597 0.058609,-0.586095 0.1361358,-1.129797 0.2699367,-1.7096 0.076896,-0.333214 0.2275199,-0.650436 0.2699363,-0.989767 0.0186,-0.148807 -0.029411,-0.302842 0,-0.449894 0.031676,-0.158383 0.1335466,-0.295191 0.1799583,-0.449895 0.141924,-0.473083 0.1746244,-0.976435 0.359915,-1.439662 -0.069776,-0.376975 0.324231,-0.606576 0.4498946,-0.899789 0.1546053,-0.360747 0.1357876,-0.833533 0.3599157,-1.169726 0.070585,-0.105878 0.213029,-0.15612 0.2699363,-0.269936 0.04024,-0.08048 -0.017645,-0.181705 0,-0.269938 0.031676,-0.15838 0.1077254,-0.305427 0.1799582,-0.449893 0.5402506,-1.080502 -0.1422326,0.387017 0.3599151,-0.449894 0.048798,-0.08133 0.047563,-0.185106 0.089979,-0.269939 0.3152976,-0.630592 0.7664356,-1.666221 1.2597046,-2.159492 0.07647,-0.07647 0.200707,-0.09688 0.269937,-0.179959 0.161397,-0.13426 0.144249,-0.382762 0.269937,-0.539872 0.158984,-0.198731 0.376947,-0.344363 0.539873,-0.539874 0.201928,-0.242313 0.317188,-0.587124 0.539873,-0.80981 0.467672,-0.467673 0.09372,0.0853 0.449895,-0.359916 0.151058,-0.188822 0.188929,-0.458864 0.359915,-0.629851 0.06707,-0.06707 0.195875,-0.03073 0.269937,-0.08998 0.168888,-0.13511 0.221455,-0.373722 0.359915,-0.539872 0.149965,-0.179959 0.284253,-0.374232 0.449895,-0.539874 0.07647,-0.07647 0.202381,-0.09551 0.269937,-0.179959 0.05925,-0.07406 0.03737,-0.191019 0.08998,-0.269936 0.227897,-0.341847 0.718476,-0.594585 0.989768,-0.89979 0.171411,-0.192836 0.267455,-0.44741 0.449895,-0.629851 0.224947,-0.224946 0.494883,-0.404905 0.719831,-0.629854 0.203499,-0.203498 0.336373,-0.516332 0.539873,-0.719831 0.07647,-0.07647 0.193469,-0.10349 0.269936,-0.179957 0.193493,-0.079 0.146272,-0.326231 0.269937,-0.449895 0.337557,-0.337557 0.165883,-0.05693 0.449895,-0.269936 0.647216,-0.485412 -0.18989,0.09991 0.269936,-0.359916 0.29993,-0.29993 0.779817,-0.419901 1.079747,-0.719831 0.07647,-0.07647 0.10349,-0.193469 0.179958,-0.269937 0.249514,-0.249514 0.700558,-0.449096 0.989767,-0.629852 0.366346,-0.228966 0.709334,-0.497583 1.079747,-0.719831 0.1385,-0.0831 0.323771,-0.07906 0.449894,-0.179958 0.08444,-0.06756 0.08998,-0.20995 0.179958,-0.269936 0.07974,-0.05316 0.869978,-0.308577 0.989768,-0.359916 0.396721,-0.170023 0.783407,-0.436693 1.169725,-0.629852 0.335922,-0.16796 0.743826,-0.191955 1.079747,-0.359915 0.373573,-0.186787 0.681064,-0.317001 1.079746,-0.449895 0.168246,-0.05608 1.312741,-0.502928 1.349682,-0.539873 0.04742,-0.04742 0.02999,-0.149965 0.08998,-0.179958 0.08048,-0.04024 0.181705,0.01764 0.269936,0 0.289915,-0.05798 0.636757,-0.318379 0.899787,-0.449894 0.119975,-0.05999 0.229788,-0.147426 0.359918,-0.179958 0.0582,-0.01455 0.130045,0.03327 0.179956,0 0.0558,-0.0372 0.03418,-0.142756 0.08998,-0.179958 0.04991,-0.03327 0.124264,0.02228 0.179959,0 0.146952,-0.05878 0.527008,-0.398473 0.629851,-0.449894 0.161589,-0.08079 0.221824,0.117157 0.359916,-0.08998 0.03327,-0.04991 -0.01897,-0.12305 0,-0.179958 0.06166,-0.184981 0.500554,-0.277495 0.629853,-0.449894 0.350589,-0.467455 0.338786,-0.359916 1.079746,-0.359916 z"
       id="path23"
       clip-path="url(#clipPath23)"
       inkscape:path-effect="#path-effect24"
       inkscape:original-d="m 33.292187,16.736072 c 0.222695,-0.309292 0.557639,0.01089 0.809811,-0.08998 0.07876,-0.03151 0.09839,-0.156652 0.179956,-0.179957 0.144195,-0.0412 0.300675,0.01492 0.449895,0 0.70625,-0.07062 1.362744,-0.390997 2.069515,-0.449895 0.564666,-0.04706 0.522184,0.07729 1.079746,-0.08998 0.128477,-0.03854 0.229788,-0.147426 0.359916,-0.179958 0.11639,-0.0291 0.240678,0.01325 0.359915,0 0.281898,5.03e-4 0.535424,-0.145659 0.80981,-0.179957 0.353931,-0.04424 0.728636,-0.03146 1.079746,-0.08998 0.260985,-0.0435 0.123666,-0.125586 0.449895,-0.179958 0.147923,-0.02465 0.302842,0.02941 0.449895,0 0.332044,-0.06641 0.651351,-0.123555 0.989766,-0.179958 0.145913,-0.02432 0.303983,0.02432 0.449895,0 0.896432,-0.149405 -0.485963,-0.04048 0.629852,-0.179958 0.458657,-0.05733 0.89368,-0.122957 1.349684,-0.179957 0.286279,0.187598 0.413695,-0.149078 0.629851,-0.179958 0.237533,-0.03393 0.483153,0.03945 0.719831,0 0.358622,-0.05977 0.720315,-0.12861 1.079749,-0.179958 0.292674,-0.04181 0.608174,0.0486 0.899787,0 0.09356,-0.01559 0.176046,-0.07657 0.269938,-0.08998 1.091721,-0.15596 2.339576,0.08181 3.419197,0.179958 0.298697,0.02715 0.602176,-0.0372 0.899788,0 0.426323,0.05329 0.836424,0.222905 1.259705,0.269937 0.178858,0.01987 0.360656,-0.01629 0.539874,0 0.36462,0.03315 0.719286,0.1349 1.079746,0.179957 0.596331,0.07454 1.20115,0.113466 1.799577,0.179958 0.296283,0.03292 0.602602,-0.02477 0.899789,0 0.910482,0.07587 1.812052,0.122051 2.699367,0.269937 0.177509,0.02959 0.36341,-0.03529 0.539874,0 0.06576,0.01315 0.114194,0.07683 0.179957,0.08998 0.230716,0.04614 0.489116,-0.04614 0.71983,0 0.06576,0.01315 0.113806,0.07895 0.179959,0.08998 0.118341,0.01972 0.24115,-0.01697 0.359916,0 0.392282,0.05604 0.772348,0.220264 1.169725,0.269936 0.119044,0.01488 0.241149,-0.01697 0.359916,0 0.428688,0.06124 0.8432,0.267359 1.259705,0.359916 0.117115,0.02602 0.241575,-0.01972 0.359915,0 0.132308,0.02205 0.228388,0.153652 0.359915,0.179958 0.08823,0.01765 0.184576,-0.02845 0.269936,0 0.102592,0.0342 0.17054,0.137359 0.269936,0.179957 0.113668,0.04871 0.244126,0.04656 0.359915,0.08998 0.237088,0.08891 0.496999,0.270782 0.719834,0.359916 0.401301,0.16052 0.854369,0.197781 1.259702,0.359915 0.566203,0.226481 1.245958,0.581426 1.79958,0.719831 0.11753,0.02938 0.380777,0.228468 0.449895,0.269937 0.212664,0.127599 0.386836,0.14843 0.629851,0.269937 0.440385,0.220193 0.115128,0.108841 0.449895,0.359915 0.242784,0.18209 0.147452,-0.0015 0.449894,0.179958 0.836912,0.502148 -0.630607,-0.180335 0.449893,0.359915 0.181467,0.09073 0.292653,0.06203 0.449894,0.179958 0.500907,0.375679 0.995392,0.669218 1.529639,0.989768 0.261075,0.156643 0.474403,0.376252 0.719833,0.539873 0.223211,0.148807 0.513744,0.188177 0.719833,0.359916 0.08307,0.06923 0.10349,0.193469 0.179957,0.269936 0.223835,0.223834 0.565174,0.266418 0.80981,0.449895 0.215985,0.16199 0.531421,0.351464 0.719831,0.539873 0.04742,0.04742 0.04256,0.132535 0.08998,0.179958 0.424746,0.424748 0.10078,-0.02279 0.539872,0.269937 0.957318,0.63821 -0.516975,-0.115458 0.629854,0.539873 0.08235,0.04706 0.185102,0.04756 0.269938,0.08998 0.212442,0.106222 0.439074,0.306811 0.629854,0.449894 0.138541,0.103909 0.221366,0.256007 0.359913,0.359916 0.107304,0.08048 0.252608,0.09948 0.359915,0.179958 0.26874,0.201552 0.451096,0.518278 0.719831,0.71983 0.145693,0.109271 0.178199,0.04235 0.269936,0.179958 0.167928,0.25189 -0.008,0.137524 0.269938,0.359916 0.168886,0.13511 0.38694,0.206981 0.539872,0.359915 0.106042,0.106042 0.163896,0.253876 0.269936,0.359915 0.04742,0.04742 0.124158,0.05278 0.179959,0.08998 0.119721,0.07981 0.185576,0.275555 0.269936,0.359915 0.04742,0.04742 0.132535,0.04256 0.179959,0.08998 0.29623,0.296227 0.532757,0.678079 0.80981,0.989766 0.253619,0.285324 0.56542,0.516544 0.809807,0.80981 0.138462,0.166153 0.206981,0.38694 0.359918,0.539872 0.07647,0.07647 0.193469,0.103492 0.269936,0.179959 0.344091,0.344088 0.544735,0.772112 0.809813,1.169723 0.189995,0.285001 0.552463,0.516927 0.719828,0.80981 0.06135,0.107373 0.03467,0.249309 0.08998,0.359918 0.07588,0.151755 0.253928,0.227428 0.359915,0.359916 0.343821,0.429778 0.04818,0.09637 0.269936,0.539874 0.189976,0.379952 0.486989,0.73048 0.719833,1.079746 0.25427,0.381407 -0.07645,-0.0494 0.08998,0.449892 -0.0089,0.240951 0.288589,0.271584 0.359915,0.449895 0.03342,0.08354 -0.02845,0.184576 0,0.269939 0.06363,0.190875 0.195212,0.353062 0.269936,0.539871 0.197781,0.494451 0.568952,1.047922 0.80981,1.529641 0.16796,0.335923 0.191955,0.743829 0.359916,1.079746 0.01897,0.03794 0.07969,0.04883 0.08998,0.08998 0.02183,0.08729 -0.04024,0.189457 0,0.269938 0.02999,0.05999 0.149966,0.02999 0.179959,0.08998 0.04024,0.08048 -0.01765,0.181705 0,0.269936 0.0263,0.131527 0.153652,0.228388 0.179956,0.359915 0.01765,0.08823 -0.01765,0.181705 0,0.269938 0.04438,0.221891 0.230667,0.394227 0.269936,0.629852 0.141171,0.847024 -0.215841,-0.440526 0.08998,0.629851 0.07081,0.247825 0.130855,0.474308 0.179959,0.719831 -0.188952,0.253119 0.153651,0.228388 0.179956,0.359915 0.02352,0.117644 -0.01971,0.241578 0,0.359918 0.02655,0.159319 0.153406,0.290573 0.179959,0.449892 0.02466,0.147926 -0.03637,0.304409 0,0.449895 0.08615,0.344601 0.199549,0.727808 0.269936,1.079746 0.275741,0.306843 0.025,0.664919 0.08998,0.989769 0.01315,0.06577 0.07682,0.114194 0.08998,0.179957 0.09231,0.461563 -0.06668,0.972941 0,1.439664 0.01749,0.12242 0.07464,0.237204 0.08998,0.359915 0.07223,0.577794 -0.137022,1.341477 0,1.889556 0.01627,0.06506 0.07895,0.113803 0.08998,0.179957 0.05317,0.319013 -0.0634,0.67274 0,0.989769 0.234696,1.173475 0.110061,3.068931 -0.179957,4.229007 -0.02117,0.08469 0.02117,0.185251 0,0.269936 -0.08196,0.327832 -0.303778,0.652939 -0.359915,0.989769 -0.140997,0.845974 -0.413187,1.701687 -0.719833,2.519408 -0.04709,0.125592 -0.137541,0.232666 -0.179957,0.359915 -0.04836,0.145087 -0.03628,0.306697 -0.08998,0.449895 -0.03797,0.101256 -0.131596,0.173212 -0.179957,0.269936 -0.202861,0.40572 -0.337013,0.853985 -0.539874,1.259705 -0.07821,0.156424 -0.198908,0.290081 -0.269936,0.449895 -0.362384,0.815361 0.26057,-0.145103 -0.269938,0.80981 -0.07283,0.131093 -0.20287,0.225782 -0.269936,0.359915 -0.0553,0.110609 -0.03881,0.247336 -0.08998,0.359916 -0.248023,0.545645 -0.633296,1.144325 -0.989769,1.61962 -0.240109,0.320146 -0.536932,0.62397 -0.719831,0.989767 -0.04242,0.08483 -0.04118,0.188608 -0.08998,0.269936 -0.178737,0.297894 -0.517261,0.539715 -0.719831,0.80981 -0.05691,0.07588 -0.03073,0.195876 -0.08998,0.269938 -0.119973,0.149963 -0.329922,0.20995 -0.449895,0.359916 -0.336635,0.42079 -0.611129,0.971044 -0.989767,1.349682 -0.106042,0.106042 -0.262321,0.156075 -0.359915,0.269938 -0.08729,0.101841 -0.09761,0.254037 -0.179959,0.359915 -0.373245,0.479886 -0.399907,0.335921 -0.719831,0.719831 -0.06923,0.08308 -0.103489,0.193469 -0.179956,0.269936 -0.307197,0.307192 -0.384993,0.197067 -0.629854,0.539874 -0.237911,0.333076 -0.42055,0.690486 -0.719831,0.989767 -0.106042,0.106042 -0.262318,0.156075 -0.359915,0.269936 -0.08729,0.10184 -0.09267,0.258074 -0.179959,0.359915 -0.09759,0.113864 -0.253873,0.163896 -0.359915,0.269939 -0.07647,0.07647 -0.108747,0.188552 -0.179957,0.269935 -0.276098,0.31554 -0.630759,0.576951 -0.899789,0.89979 -0.06923,0.08308 -0.103492,0.193469 -0.179957,0.269936 -0.07647,0.07647 -0.200707,0.09688 -0.269938,0.179959 -0.08587,0.103042 -0.08511,0.265068 -0.179957,0.359915 -0.09485,0.09485 -0.256873,0.09409 -0.359915,0.179957 -0.198297,0.165245 -0.461441,0.603099 -0.719831,0.80981 -0.368141,0.294513 -0.797586,0.512096 -1.169725,0.80981 -0.278972,0.223176 -0.08063,0.175284 -0.449895,0.359915 -0.637715,0.318858 -1.380583,0.590466 -1.979536,0.989767 -0.07059,0.04706 -0.107214,0.136313 -0.179959,0.179959 -0.162658,0.0976 -0.365519,0.105235 -0.539874,0.179959 -0.322906,0.138388 -0.684276,0.275328 -0.989767,0.449892 -0.09389,0.05365 -0.168682,0.141989 -0.269936,0.179959 -0.1432,0.0537 -0.306697,0.03628 -0.449897,0.08998 -0.101256,0.03797 -0.17321,0.131596 -0.269933,0.179956 -0.169667,0.08483 -0.365522,0.105235 -0.539875,0.179959 -0.373851,0.160221 -0.711763,0.376325 -1.079746,0.539872 -0.113006,0.05023 -0.24625,0.04127 -0.359915,0.08998 -0.0994,0.0426 -0.17149,0.13521 -0.269936,0.179959 -1.176052,0.534567 -0.289671,0.04372 -1.169728,0.449893 -0.243573,0.112418 -0.469445,0.263614 -0.719828,0.359918 -0.142743,0.0549 -0.303411,0.04603 -0.449895,0.08998 -0.569468,0.170839 -1.0511,0.544904 -1.619623,0.719831 -0.174371,0.05366 -0.365498,0.03633 -0.539872,0.08998 -0.802656,0.24697 -1.553723,0.704048 -2.339451,0.989769 -0.143727,0.05226 -0.304808,0.04162 -0.449892,0.08998 -0.528029,0.176011 -0.176774,0.202054 -0.719836,0.269938 -0.53562,0.06695 -0.213241,-0.108879 -0.809805,0.08998 -0.353785,0.11793 -0.699045,0.312327 -1.079749,0.359918 -0.148807,0.0186 -0.301088,-0.0186 -0.449895,0 -0.216664,0.02708 -0.413694,0.149076 -0.629851,0.179956 -0.361939,0.0517 -0.719378,0.128476 -1.079746,0.179959 -0.205753,0.02939 -0.424103,-0.0294 -0.629851,0 -0.930587,0.13294 0.283604,0.05846 -0.80981,0.179956 -0.735338,0.0817 -1.520579,-0.12148 -2.249475,0 -0.06615,0.01103 -0.113802,0.07895 -0.179956,0.08998 -0.588185,0.09803 -1.295765,0 -1.889556,0 -1.109742,0 -2.219479,0 -3.329223,0 -1.799574,0 -3.599151,0 -5.398733,0 -0.796544,0 -1.637557,0.07919 -2.429428,0 -0.30435,-0.03044 -0.595434,-0.149524 -0.899787,-0.179959 -0.424487,-0.04245 -0.831734,-0.13716 -1.259705,-0.179954 -0.119375,-0.01193 -0.243528,0.0291 -0.359916,0 -0.130127,-0.03253 -0.229788,-0.147426 -0.359915,-0.179959 -0.11639,-0.0291 -0.240869,0.0149 -0.359915,0 -0.449853,-0.05623 -1.842979,-0.387437 -2.249472,-0.539874 -0.306774,-0.115038 -0.690745,-0.231762 -0.989769,-0.359913 -0.0994,-0.0426 -0.16868,-0.141991 -0.269936,-0.179959 -0.258913,-0.09709 -0.550894,-0.08286 -0.80981,-0.179956 -0.239943,-0.08998 -0.479886,-0.179959 -0.719831,-0.269939 -0.397925,-0.149222 -0.7718,-0.390649 -1.169728,-0.539874 -0.687324,-0.257747 -0.02212,0.123907 -0.809808,-0.269936 -0.09672,-0.04836 -0.170537,-0.137358 -0.269938,-0.179956 -0.08399,-0.036 -0.524791,-0.109919 -0.629849,-0.179959 -0.105878,-0.07058 -0.166391,-0.195977 -0.269938,-0.269936 -0.397,-0.283573 -0.916795,-0.343109 -1.349682,-0.539877 -0.562957,-0.255887 -1.107848,-0.648581 -1.619621,-0.989764 -1.00984,-0.673227 0.04777,0.06465 -0.80981,-0.449895 -0.447521,-0.268512 -0.828091,-0.612045 -1.259705,-0.89979 -0.410229,-0.273486 -0.865682,-0.514294 -1.259704,-0.809807 -0.1018,-0.07635 -0.168137,-0.193588 -0.269937,-0.269939 -0.13991,-0.104931 -0.311846,-0.162565 -0.449894,-0.269938 -0.133926,-0.104161 -0.218745,-0.265801 -0.359916,-0.359913 -0.13439,-0.08959 -0.312928,-0.09435 -0.449894,-0.179959 -0.107907,-0.06744 -0.16639,-0.195974 -0.269937,-0.269936 -0.616049,-0.440036 -0.11979,0.06513 -0.629852,-0.359915 -0.195511,-0.162925 -0.332779,-0.391951 -0.539873,-0.539877 -0.109148,-0.07796 -0.250767,-0.101992 -0.359916,-0.179954 -0.572809,-0.409149 0.06383,-0.154493 -0.629852,-0.539874 -0.141191,-0.07844 -0.311394,-0.09686 -0.449894,-0.179959 -0.313938,-0.18836 -0.606901,-0.410184 -0.899789,-0.629851 -0.101799,-0.07635 -0.162029,-0.202494 -0.269937,-0.269934 -0.136966,-0.0856 -0.308703,-0.10152 -0.449894,-0.179959 -0.354139,-0.196744 -0.624352,-0.537125 -0.989768,-0.719833 -0.08483,-0.04242 -0.197074,-0.02926 -0.269936,-0.08998 -0.115207,-0.09601 -0.163896,-0.253873 -0.269937,-0.359913 -0.307708,-0.30771 -0.771152,-0.462669 -1.079747,-0.719833 -0.08308,-0.06923 -0.10349,-0.193469 -0.179957,-0.269936 -0.182441,-0.182441 -0.435681,-0.279993 -0.629853,-0.449895 -0.126043,-0.110286 -0.672721,-0.582742 -0.80981,-0.719833 -0.467671,-0.46767 0.0853,-0.09372 -0.359915,-0.449895 -0.259818,-0.207854 -0.256779,-0.11852 -0.449894,-0.359913 -0.135111,-0.168889 -0.263192,-0.346424 -0.359916,-0.539874 -0.04242,-0.08483 -0.03073,-0.195874 -0.08998,-0.269936 -0.06755,-0.08444 -0.209951,-0.08998 -0.269937,-0.179956 -0.0686,-0.102897 -0.02138,-0.257022 -0.08998,-0.359916 -0.05999,-0.08998 -0.200707,-0.09688 -0.269937,-0.179959 -0.171739,-0.206086 -0.20399,-0.501533 -0.359916,-0.719833 -0.07396,-0.103545 -0.199351,-0.164055 -0.269936,-0.269933 -0.111605,-0.16741 -0.163302,-0.369258 -0.269937,-0.539875 -0.04496,-0.07194 -0.136311,-0.107214 -0.179958,-0.179956 -0.359846,-0.599747 0.354455,0.113599 -0.359915,-0.719833 -0.07038,-0.0821 -0.207081,-0.09196 -0.269937,-0.179957 C 10.52363,64.383428 10.51599,64.206157 10.43755,64.064965 10.36472,63.933872 10.257592,63.825022 10.167614,63.705049 10.017649,63.375127 9.8882634,63.035053 9.7177193,62.715283 9.6471478,62.582959 9.5206119,62.486458 9.4477827,62.355368 9.0950611,61.473562 9.4734314,62.306425 8.9978881,61.545557 8.6436938,60.978846 8.3316977,60.278928 8.0980992,59.656001 8.0546779,59.540209 8.0568342,59.409751 8.0081207,59.296083 7.9655218,59.196687 7.8661337,59.127403 7.8281628,59.026147 7.774464,58.882949 7.7918829,58.71945 7.7381841,58.576252 7.7002132,58.474996 7.596197,58.407573 7.5582259,58.306316 7.4301144,57.964686 7.5165633,57.819195 7.3782685,57.496506 7.3356695,57.39711 7.2245387,57.331483 7.1983108,57.22657 c -0.036372,-0.145486 0.036372,-0.304408 0,-0.449894 -0.026228,-0.104913 -0.1419871,-0.16868 -0.179958,-0.269936 -0.097601,-0.260268 -0.3238007,-1.150745 -0.3599153,-1.439664 -0.029761,-0.238091 0.065917,-0.48912 0,-0.719831 -0.036849,-0.128971 -0.1508604,-0.228976 -0.179958,-0.359915 -0.032532,-0.146394 0.0186,-0.301088 0,-0.449895 -0.011763,-0.09411 -0.080541,-0.175562 -0.089979,-0.269936 -0.096229,-0.962282 0,-2.001266 0,-2.969302 0,-0.672177 -0.083266,-1.403393 0,-2.069516 0.048852,-0.390813 0.1361358,-0.775329 0.1799574,-1.169725 0.013248,-0.119237 0,-0.239943 0,-0.359916 0.029993,-0.269936 0.04868,-0.541369 0.089979,-0.80981 0.087846,-0.570997 0.3022094,-1.132541 0.3599153,-1.709597 0.058609,-0.586095 0.1361358,-1.129797 0.2699367,-1.7096 0.076896,-0.333214 0.2275199,-0.650436 0.2699363,-0.989767 0.0186,-0.148807 -0.029411,-0.302842 0,-0.449894 0.031676,-0.158383 0.1335466,-0.295191 0.1799583,-0.449895 0.141924,-0.473083 0.1746244,-0.976435 0.359915,-1.439662 -0.069776,-0.376975 0.324231,-0.606576 0.4498946,-0.899789 0.1546053,-0.360747 0.1357876,-0.833533 0.3599157,-1.169726 0.070585,-0.105878 0.213029,-0.15612 0.2699363,-0.269936 0.04024,-0.08048 -0.017645,-0.181705 0,-0.269938 0.031676,-0.15838 0.1077254,-0.305427 0.1799582,-0.449893 0.5402506,-1.080502 -0.1422326,0.387017 0.3599151,-0.449894 0.048798,-0.08133 0.047563,-0.185106 0.089979,-0.269939 0.3152976,-0.630592 0.7664356,-1.666221 1.2597046,-2.159492 0.07647,-0.07647 0.200707,-0.09688 0.269937,-0.179959 0.161397,-0.13426 0.144249,-0.382762 0.269937,-0.539872 0.158984,-0.198731 0.376947,-0.344363 0.539873,-0.539874 0.201928,-0.242313 0.317188,-0.587124 0.539873,-0.80981 0.467672,-0.467673 0.09372,0.0853 0.449895,-0.359916 0.151058,-0.188822 0.188929,-0.458864 0.359915,-0.629851 0.06707,-0.06707 0.195875,-0.03073 0.269937,-0.08998 0.168888,-0.13511 0.221455,-0.373722 0.359915,-0.539872 0.149965,-0.179959 0.284253,-0.374232 0.449895,-0.539874 0.07647,-0.07647 0.202381,-0.09551 0.269937,-0.179959 0.05925,-0.07406 0.03737,-0.191019 0.08998,-0.269936 0.227897,-0.341847 0.718476,-0.594585 0.989768,-0.89979 0.171411,-0.192836 0.267455,-0.44741 0.449895,-0.629851 0.224947,-0.224946 0.494883,-0.404905 0.719831,-0.629854 0.203499,-0.203498 0.336373,-0.516332 0.539873,-0.719831 0.07647,-0.07647 0.193469,-0.10349 0.269936,-0.179957 0.193493,-0.079 0.146272,-0.326231 0.269937,-0.449895 0.337557,-0.337557 0.165883,-0.05693 0.449895,-0.269936 0.647216,-0.485412 -0.18989,0.09991 0.269936,-0.359916 0.29993,-0.29993 0.779817,-0.419901 1.079747,-0.719831 0.07647,-0.07647 0.10349,-0.193469 0.179958,-0.269937 0.249514,-0.249514 0.700558,-0.449096 0.989767,-0.629852 0.366346,-0.228966 0.709334,-0.497583 1.079747,-0.719831 0.1385,-0.0831 0.323771,-0.07906 0.449894,-0.179958 0.08444,-0.06756 0.08998,-0.20995 0.179958,-0.269936 0.07974,-0.05316 0.869978,-0.308577 0.989768,-0.359916 0.396721,-0.170023 0.783407,-0.436693 1.169725,-0.629852 0.335922,-0.16796 0.743826,-0.191955 1.079747,-0.359915 0.373573,-0.186787 0.681064,-0.317001 1.079746,-0.449895 0.168246,-0.05608 1.312741,-0.502928 1.349682,-0.539873 0.04742,-0.04742 0.02999,-0.149965 0.08998,-0.179958 0.08048,-0.04024 0.181705,0.01764 0.269936,0 0.289915,-0.05798 0.636757,-0.318379 0.899787,-0.449894 0.119975,-0.05999 0.229788,-0.147426 0.359918,-0.179958 0.0582,-0.01455 0.130045,0.03327 0.179956,0 0.0558,-0.0372 0.03418,-0.142756 0.08998,-0.179958 0.04991,-0.03327 0.124264,0.02228 0.179959,0 0.146952,-0.05878 0.527008,-0.398473 0.629851,-0.449894 0.161589,-0.08079 0.221824,0.117157 0.359916,-0.08998 0.03327,-0.04991 -0.01897,-0.12305 0,-0.179958 0.06166,-0.184981 0.500554,-0.277495 0.629853,-0.449894 0.350589,-0.467455 0.338786,-0.359916 1.079746,-0.359916 z" /></g></svg>
